<?xml version="1.0" encoding="utf-8"?>
<!-- Generator: Adobe Illustrator 27.0.1, SVG Export Plug-In . SVG Version: 6.00 Build 0)  -->
<svg version="1.1" xmlns="http://www.w3.org/2000/svg" xmlns:xlink="http://www.w3.org/1999/xlink" x="0px" y="0px"
	 viewBox="0 0 512 512" style="enable-background:new 0 0 512 512;" xml:space="preserve">
<g id="ICONOS">
	<path style="fill:#6D20F4;" d="M405.26,42.88h-54.14C321.1,8.65,274.95-6.69,230.41,2.73c-26.64,5.44-50.73,19.55-68.46,40.15
		h-55.21C47.89,42.95,0.19,90.65,0.12,149.5v255.88C0.19,464.23,47.89,511.93,106.74,512h298.52
		c58.86-0.07,106.55-47.77,106.63-106.62V149.5C511.81,90.65,464.11,42.95,405.26,42.88z M256.01,42.88
		c47.11,0,85.28,38.19,85.28,85.29c0,11.77-9.54,21.32-21.32,21.32h-45.46l20.56-30.82c6.54-9.8,3.89-23.04-5.91-29.58
		c-9.79-6.54-23.04-3.89-29.58,5.91l-36.31,54.48h-31.24c-11.78,0-21.32-9.55-21.32-21.32C170.72,81.06,208.89,42.88,256.01,42.88z
		 M469.23,405.38c0,35.34-28.64,63.97-63.98,63.97H106.74c-35.33,0-63.97-28.64-63.97-63.97V149.5c0-35.33,28.64-63.97,63.97-63.97
		h29.71c-5.53,15.13-8.36,31.12-8.38,47.23c0.04,32.78,26.6,59.35,59.38,59.38h137.11c31.79,0.29,58.06-24.69,59.38-56.44
		c0.21-17-2.26-33.94-7.34-50.18h28.66c35.34,0,63.98,28.64,63.98,63.97V405.38z"/>
</g>
<g id="REGLAS_Y_TAMAÑOS">
</g>
</svg>
