<?xml version="1.0" encoding="utf-8"?>
<!-- Generator: Adobe Illustrator 27.0.0, SVG Export Plug-In . SVG Version: 6.00 Build 0)  -->
<svg version="1.1" xmlns="http://www.w3.org/2000/svg" xmlns:xlink="http://www.w3.org/1999/xlink" x="0px" y="0px"
	 viewBox="0 0 512 512" style="enable-background:new 0 0 512 512;" xml:space="preserve">
<g id="ICONOS">
	<path style="fill:#7900FF;" d="M492.24,59.79h-68.46v-9.65c0-10.9-8.86-19.76-19.76-19.76s-19.76,8.86-19.76,19.76v9.65h-64.39
		v-9.65c0-10.9-8.86-19.76-19.76-19.76c-10.9,0-19.76,8.86-19.76,19.76v9.65h-63.41v-9.65c0-10.9-8.86-19.76-19.76-19.76
		c-10.9,0-19.76,8.86-19.76,19.76v9.65h-69.44c-10.9,0-19.76,8.86-19.76,19.76v88.22c0,48.45-9.29,96.38-26.87,138.59
		c-14.49,34.79-34.27,64.5-54.25,81.49c-6.37,5.31-8.75,14.11-5.93,21.91c2.82,7.8,10.29,13.03,18.58,13.03h68.46v39.06
		c0,10.9,8.86,19.76,19.76,19.76h384.26c10.9,0,19.76-8.86,19.76-19.76V79.55C512,68.66,503.14,59.79,492.24,59.79z M472,187.53
		c-2.02,41.39-10.49,80.47-25.19,116.23c-13.13,31.92-30.61,59.37-50.65,79.52H63.35c38.07-52.38,60.62-121.29,63.94-195.75H472z
		 M127.74,422.8h276.28c4.61,0,9.11-1.63,12.65-4.58c15.87-13.22,37.89-40.73,55.81-75.8v99.67H127.74V422.8z M197.18,128.72
		c10.9,0,19.76-8.86,19.76-19.76v-9.65h63.41v9.65c0,10.9,8.86,19.76,19.76,19.76c10.9,0,19.76-8.86,19.76-19.76v-9.65h64.39v9.65
		c0,10.9,8.86,19.76,19.76,19.76s19.76-8.86,19.76-19.76v-9.65h48.7v48.7H127.74v-48.7h49.68v9.65
		C177.42,119.86,186.29,128.72,197.18,128.72z"/>
</g>
<g id="REGLAS_Y_TAMAÑOS">
</g>
</svg>
