<?xml version="1.0" encoding="utf-8"?>
<!-- Generator: Adobe Illustrator 27.0.1, SVG Export Plug-In . SVG Version: 6.00 Build 0)  -->
<svg version="1.1" xmlns="http://www.w3.org/2000/svg" xmlns:xlink="http://www.w3.org/1999/xlink" x="0px" y="0px"
	 viewBox="0 0 512 512" style="enable-background:new 0 0 512 512;" xml:space="preserve">
<g id="ICONOS">
	<g>
		<path style="fill:#6D20F4;" d="M352,21.33c-34.99,0-68.48,11.95-96,34.13c-27.52-22.19-61.01-34.13-96-34.13
			C71.68,21.33,0,97.92,0,192c0,204.59,238.51,293.76,248.74,297.39c2.35,0.86,4.69,1.28,7.26,1.28c2.35,0,4.91-0.43,7.25-1.28
			C273.49,485.76,512,396.59,512,192C512,97.92,440.32,21.33,352,21.33z M256,446.29C217.81,430.29,42.67,348.8,42.67,192
			c0-70.61,52.69-128,117.33-128c30.08,0,58.67,12.59,80.64,35.2c8.11,8.32,22.61,8.32,30.72,0C293.12,76.37,321.92,64,352,64
			c64.64,0,117.33,57.39,117.33,128C469.33,348.16,294.19,430.29,256,446.29z"/>
		<path style="fill:#6D20F4;" d="M383.57,213.12h-31.15l-36.27-54.4c-4.27-5.97-11.09-9.6-18.56-9.39
			c-7.25,0.21-14.08,4.27-17.71,10.67L214.4,274.77l-24.75-49.71c-3.41-7.25-10.88-11.73-18.98-11.73H128
			c-11.73,0-21.33,9.6-21.33,21.33c0,11.73,9.6,21.33,21.33,21.33h29.44l36.69,73.6c3.63,7.04,10.67,11.52,18.56,11.73
			c0.21,0,0.64,0,0.64,0l-0.43-0.21c7.68,0,14.72-4.05,18.56-10.67l68.27-119.47l23.47,35.2c3.84,5.97,10.67,9.6,17.71,9.6h42.67
			c11.73,0,21.33-9.6,21.33-21.33C404.91,222.72,395.31,213.12,383.57,213.12z"/>
	</g>
</g>
<g id="REGLAS_Y_TAMAÑOS">
</g>
</svg>
