<?xml version="1.0" encoding="utf-8"?>
<!-- Generator: Adobe Illustrator 27.0.1, SVG Export Plug-In . SVG Version: 6.00 Build 0)  -->
<svg version="1.1" xmlns="http://www.w3.org/2000/svg" xmlns:xlink="http://www.w3.org/1999/xlink" x="0px" y="0px"
	 viewBox="0 0 512 512" style="enable-background:new 0 0 512 512;" xml:space="preserve">
<g id="ICONOS">
	<g>
		<path style="fill:#6D20F4;" d="M405.79,96.02c9.56,0,17.33-7.78,17.33-17.34c0-9.56-7.78-17.34-17.33-17.34
			c-9.56,0-17.34,7.78-17.34,17.34C388.45,88.24,396.23,96.02,405.79,96.02z"/>
		<path style="fill:#6D20F4;" d="M106.22,96.02c9.56,0,17.34-7.78,17.34-17.34c0-9.56-7.78-17.34-17.34-17.34
			s-17.34,7.78-17.34,17.34C88.87,88.24,96.65,96.02,106.22,96.02z"/>
		<path style="fill:#6D20F4;" d="M391.16,300.03L391.16,300.03c0.71-4.58-0.42-9.16-3.15-12.89s-6.77-6.18-11.35-6.88
			c-9.46-1.45-18.32,5.05-19.77,14.5c-1.28,8.3-7.23,14.51-17.69,18.46c-9.74,3.68-28.49,6.76-62.48,0.5l-4.18-0.77v-39.64
			l5.88,0.91c29.89,4.64,54.46,3.43,73.04-3.59c22.05-8.34,36.52-24.97,39.7-45.63c0.71-4.58-0.42-9.16-3.15-12.89
			s-6.77-6.18-11.35-6.88c-9.45-1.45-18.32,5.05-19.77,14.5c-1.28,8.3-7.23,14.51-17.69,18.46c-9.75,3.68-28.5,6.76-62.48,0.5
			l-4.18-0.77v-33.36c0-9.56-7.78-17.34-17.34-17.34c-9.56,0-17.34,7.78-17.34,17.34v34.39l-4.28,0.7
			c-30.88,5.01-48.2,1.97-57.28-1.46c-10.46-3.95-16.41-10.16-17.69-18.46c-0.7-4.58-3.15-8.61-6.88-11.35
			c-3.73-2.74-8.31-3.86-12.89-3.16c-4.58,0.7-8.61,3.15-11.35,6.88c-2.74,3.74-3.86,8.31-3.15,12.89
			c3.18,20.67,17.65,37.3,39.71,45.63c17.76,6.71,40.65,8.23,68.04,4.51l5.79-0.79v39.62l-4.28,0.7
			c-30.89,5.02-48.2,1.97-57.29-1.46c-10.46-3.95-16.41-10.16-17.69-18.46c-0.7-4.58-3.15-8.61-6.88-11.35
			c-3.74-2.74-8.31-3.86-12.89-3.16c-4.58,0.7-8.61,3.15-11.35,6.88c-2.74,3.74-3.86,8.31-3.15,12.89
			c3.18,20.67,17.65,37.3,39.71,45.63c17.76,6.71,40.65,8.23,68.04,4.51l5.79-0.79v9.47c0,9.56,7.78,17.34,17.34,17.34
			c9.56,0,17.34-7.78,17.34-17.34v-10.52l5.88,0.91c29.89,4.64,54.46,3.43,73.04-3.59C373.51,337.33,387.98,320.69,391.16,300.03z"
			/>
		<path style="fill:#6D20F4;" d="M256.19,420.64c-9.56,0-17.34,7.78-17.34,17.34c0,9.56,7.78,17.34,17.34,17.34
			c9.56,0,17.34-7.78,17.34-17.34C273.53,428.42,265.75,420.64,256.19,420.64z"/>
		<path style="fill:#6D20F4;" d="M511.31,16.04L511.31,16.04c-0.43-4.61-2.63-8.78-6.19-11.74s-8.07-4.35-12.68-3.92
			c-4.61,0.43-8.78,2.63-11.74,6.19c-2.96,3.56-4.35,8.07-3.92,12.68c2.91,31.27-5.79,56.06-25.86,73.69
			c-17.86,15.69-43.67,24.64-72.67,25.19c-28.17,0.54-55.62-7.15-75.29-21.09c-18.48-13.1-28.69-31.34-29.5-52.74l-0.01-0.15l0-0.14
			c0.02-0.89,0.06-1.76,0.1-2.63c0.07-1.35,0.13-2.62,0.08-3.87c-0.32-8.34-6.81-15.13-15.42-16.13l-0.15-0.02
			c-0.69-0.1-1.27-0.28-1.68-0.41c-0.13,0.01-0.26,0.02-0.39,0.01c-0.13,0-0.25,0-0.37-0.01c-0.42,0.14-1,0.31-1.69,0.41l-0.14,0.02
			c-8.61,1-15.09,7.79-15.42,16.14c-0.05,1.27,0.01,2.55,0.08,3.9c0.04,0.86,0.08,1.72,0.1,2.59l0,0.15l-0.01,0.15
			c-0.82,21.41-11.02,39.65-29.5,52.75c-19.66,13.94-47.06,21.63-75.29,21.09c-28.99-0.55-54.8-9.5-72.67-25.19
			C41.01,75.32,32.31,50.53,35.23,19.26c0.88-9.52-6.14-17.99-15.66-18.87C10.05-0.51,1.58,6.52,0.69,16.04
			C-3.25,58.32,9.68,93.89,38.08,118.9l0.08,0.05c0.28,0.18,0.7,0.45,1.16,0.84l0.84,0.71l0.47,1c0.79,1.68,2.42,5.67,4.4,13.46
			l1.62,6.36h-0.12c1.55,7.02,2.99,15.13,4.24,23.83c3.53,24.61,5.2,51.45,4.59,73.63c-0.41,14.94-1.64,29.33-2.94,44.56l-0.01,0.17
			c-0.54,6.28-1.11,12.98-1.63,19.9c-0.95,12.63-1.43,24.08-1.47,35.01l-0.02,0.38c-0.06,0.75-0.23,1.37-0.34,1.76v153.78
			c0,9.56,7.78,17.34,17.34,17.34s17.34-7.78,17.34-17.34v-37.54l9.05,11.08c11.85,14.51,25.25,27.61,40.98,40.06
			c3.63,2.87,8.16,4.17,12.77,3.63c4.6-0.53,8.72-2.83,11.59-6.46c2.88-3.63,4.17-8.17,3.63-12.76c-0.53-4.6-2.83-8.72-6.47-11.59
			c-42.87-33.94-64.4-69.13-69.8-114.11c-2.47-20.57-1.48-41.31-0.03-60.65c0.46-6.06,0.98-12.26,1.53-18.61
			c1.33-15.5,2.7-31.53,3.14-47.65c0.66-24.08-1.14-53.06-4.93-79.51c-0.27-1.86-0.57-3.61-0.89-5.46
			c-0.17-0.98-0.34-1.97-0.51-2.97l-1.31-7.93l7.73,2.2c14.82,4.22,29.28,6.49,42.96,6.75c35.44,0.69,70.42-9.34,95.99-27.47
			c8.53-6.05,16.24-13.35,22.93-21.72l3.98-4.98l3.98,4.98c6.69,8.37,14.41,15.68,22.92,21.72c25.58,18.13,60.56,28.13,96,27.47
			c13.87-0.26,28.45-2.57,43.33-6.85l7.74-2.22l-1.3,7.95c-0.17,1.05-0.35,2.09-0.53,3.13c-0.32,1.83-0.62,3.57-0.88,5.4
			c-3.8,26.45-5.59,55.43-4.93,79.51c0.45,16.04,1.81,32.02,3.12,47.47l0.16,1.86c0.5,5.87,0.97,11.41,1.39,16.93
			c1.45,19.34,2.45,40.08-0.03,60.66c-5.4,44.97-26.92,80.16-69.79,114.1c-7.5,5.94-8.77,16.86-2.84,24.36
			c5.94,7.5,16.87,8.77,24.36,2.84c15.72-12.45,29.13-25.55,40.98-40.06l9.05-11.08v37.54c0,9.56,7.78,17.34,17.34,17.34
			c9.56,0,17.34-7.78,17.34-17.34V340.56c-0.11-0.39-0.28-1-0.34-1.75l-0.02-0.39c-0.04-10.93-0.52-22.38-1.47-35.01
			c-0.5-6.62-1.06-13.18-1.6-19.52l-0.05-0.56c-1.3-15.23-2.52-29.62-2.94-44.56c-0.61-22.18,1.06-49.02,4.59-73.63
			c1.66-11.54,3.64-21.98,5.75-30.2c2.26-8.84,4.03-12.75,4.68-14.03l0.45-0.87l0.74-0.64c0.31-0.27,0.61-0.47,0.81-0.6
			C502.34,93.84,515.25,58.3,511.31,16.04z"/>
	</g>
</g>
<g id="REGLAS_Y_TAMAÑOS">
</g>
</svg>
