<?xml version="1.0" encoding="utf-8"?>
<!-- Generator: Adobe Illustrator 27.0.1, SVG Export Plug-In . SVG Version: 6.00 Build 0)  -->
<svg version="1.1" xmlns="http://www.w3.org/2000/svg" xmlns:xlink="http://www.w3.org/1999/xlink" x="0px" y="0px"
	 viewBox="0 0 512 512" style="enable-background:new 0 0 512 512;" xml:space="preserve">
<g id="ICONOS">
	<path style="fill:#6D20F4;" d="M274.3,420.56c-0.69,0-1.38-0.03-2.07-0.1c-4.08-0.46-7.88-2.28-10.8-5.17
		c-2.92-2.89-4.78-6.67-5.29-10.74l-27.16-217.31L181.76,317.1c-1.16,3.19-3.18,5.99-5.84,8.09c-2.66,2.1-5.85,3.43-9.22,3.82
		c-3.37,0.42-6.8-0.11-9.88-1.55c-3.08-1.44-5.69-3.72-7.53-6.57l-57.74-86.96l-21.48,32.21c-1.67,2.51-3.93,4.56-6.59,5.98
		c-2.65,1.42-5.62,2.16-8.63,2.17H18.29c-4.85,0-9.5-1.93-12.93-5.36C1.93,265.49,0,260.84,0,255.99c0-4.85,1.93-9.5,5.36-12.93
		c3.43-3.43,8.08-5.36,12.93-5.36h26.78l31.14-46.72c1.66-2.5,3.91-4.55,6.55-5.97c2.64-1.42,5.59-2.17,8.59-2.18h0.07
		c2.99,0,5.93,0.73,8.57,2.13c2.64,1.4,4.9,3.43,6.57,5.9l53.29,79.45l60.68-166.88c1.41-3.85,4.07-7.12,7.55-9.28
		c3.49-2.16,7.6-3.08,11.68-2.62c4.08,0.46,7.88,2.28,10.8,5.16c2.92,2.88,4.79,6.66,5.3,10.73l27.16,217.31l47.23-129.86
		c1.16-3.18,3.17-5.97,5.82-8.07c2.65-2.1,5.83-3.43,9.18-3.83c3.35-0.4,6.76,0.13,9.83,1.55c3.07,1.41,5.69,3.65,7.57,6.46
		l57.93,86.88l21.36-32.03c1.67-2.5,3.93-4.56,6.59-5.98c2.66-1.42,5.62-2.16,8.63-2.16h36.57c4.85,0,9.5,1.93,12.93,5.36
		c3.43,3.43,5.36,8.08,5.36,12.93c0,4.85-1.93,9.5-5.36,12.93c-3.43,3.43-8.08,5.36-12.93,5.36h-26.78l-31.14,46.71
		c-1.77,2.37-4.06,4.29-6.7,5.62c-2.64,1.33-5.56,2.02-8.51,2.02s-5.87-0.69-8.51-2.02c-2.64-1.33-4.94-3.25-6.7-5.62l-53.09-79.64
		l-60.79,167.18c-1.28,3.53-3.61,6.58-6.69,8.73C281.72,419.41,278.06,420.56,274.3,420.56z"/>
</g>
<g id="REGLAS_Y_TAMAÑOS">
</g>
</svg>
