<?xml version="1.0" encoding="utf-8"?>
<!-- Generator: Adobe Illustrator 27.0.1, SVG Export Plug-In . SVG Version: 6.00 Build 0)  -->
<svg version="1.1" xmlns="http://www.w3.org/2000/svg" xmlns:xlink="http://www.w3.org/1999/xlink" x="0px" y="0px"
	 viewBox="0 0 512 512" style="enable-background:new 0 0 512 512;" xml:space="preserve">
<g id="ICONOS">
	<g>
		<path style="fill:#6D20F4;" d="M229.42,438.78c53.31-5.85,103.56-29.95,141.48-67.88c37.92-37.93,62.03-88.17,67.88-141.48
			c2.01-18.31,6.49-36.19,13.19-53.18c0.46-0.89,0.85-1.82,1.13-2.81c10.34-25.12,25.57-48.18,44.94-67.55l9.56-9.56
			c2.81-2.81,4.39-6.63,4.39-10.61c0-3.98-1.58-7.79-4.39-10.61L436.9,4.39C434.08,1.58,430.27,0,426.29,0
			c-3.98,0-7.79,1.58-10.61,4.39l-9.56,9.56c-19.38,19.38-42.44,34.61-67.56,44.95c-1.02,0.29-1.98,0.68-2.89,1.16
			c-16.96,6.68-34.82,11.15-53.09,13.16c-53.31,5.85-103.56,29.95-141.48,67.88c-37.93,37.92-62.03,88.17-67.88,141.48
			c-2,18.28-6.48,36.13-13.16,53.1c-0.48,0.9-0.87,1.87-1.16,2.88c-10.34,25.13-25.57,48.19-44.95,67.57l-9.56,9.56
			C1.58,418.49,0,422.31,0,426.29c0,3.98,1.58,7.79,4.39,10.61l70.71,70.71c2.93,2.93,6.77,4.39,10.61,4.39
			c3.84,0,7.68-1.46,10.61-4.39l9.56-9.56c19.38-19.38,42.44-34.61,67.56-44.95c1.02-0.29,1.99-0.68,2.89-1.16
			C193.29,445.25,211.15,440.78,229.42,438.78z M349.69,349.69c-33.11,33.11-76.99,54.16-123.54,59.27
			c-15.83,1.74-31.38,5.09-46.42,9.93c-0.71-2.2-1.48-4.38-2.31-6.54c7.21-3.91,14.19-7.34,20.84-10.23
			c40.32-17.51,82.8-47.43,119.62-84.25c36.82-36.82,66.74-79.3,84.25-119.62c2.89-6.65,6.32-13.62,10.23-20.83
			c2.16,0.82,4.34,1.59,6.54,2.31c-4.84,15.04-8.19,30.6-9.93,46.42C403.85,272.7,382.81,316.57,349.69,349.69z M156.84,376.38
			l219.54-219.54c3.01,2.41,6.12,4.68,9.31,6.81c-4.21,7.8-7.92,15.38-11.08,22.65c-16.05,36.94-43.73,76.14-77.95,110.35
			c-34.22,34.22-73.41,61.9-110.35,77.95c-7.28,3.16-14.86,6.87-22.65,11.08C161.52,382.5,159.25,379.39,156.84,376.38z
			 M355.17,135.62L135.62,355.16c-3.01-2.41-6.12-4.68-9.31-6.81c4.21-7.8,7.92-15.38,11.08-22.65
			c16.05-36.94,43.73-76.14,77.95-110.35c34.22-34.22,73.41-61.9,110.35-77.95c7.28-3.16,14.86-6.87,22.65-11.08
			C350.48,129.5,352.75,132.61,355.17,135.62z M426.29,36.21l49.5,49.5c-19.04,19.28-34.52,41.69-45.91,66.02
			c-5.98-1.82-11.75-4.18-17.27-7.01c-0.12-0.06-0.24-0.13-0.37-0.19c-9.46-4.91-18.17-11.26-25.84-18.94
			c-7.68-7.68-14.03-16.38-18.94-25.85c-0.05-0.11-0.11-0.23-0.17-0.34c-2.84-5.53-5.2-11.31-7.02-17.3
			C384.6,70.73,407.01,55.25,426.29,36.21z M162.31,162.31c33.11-33.12,76.99-54.16,123.54-59.27c15.83-1.74,31.38-5.09,46.42-9.93
			c0.71,2.2,1.48,4.38,2.31,6.54c-7.21,3.91-14.19,7.34-20.84,10.23c-40.32,17.51-82.8,47.43-119.62,84.25
			c-36.82,36.82-66.74,79.3-84.25,119.62c-2.89,6.65-6.32,13.62-10.23,20.83c-2.16-0.82-4.34-1.59-6.54-2.31
			c4.84-15.04,8.19-30.6,9.93-46.42C108.15,239.3,129.2,195.42,162.31,162.31z M85.72,475.79l-49.5-49.5
			c19.04-19.28,34.52-41.69,45.91-66.02c5.8,1.77,11.41,4.04,16.78,6.76c0.24,0.13,0.49,0.25,0.73,0.37
			c9.51,4.92,18.26,11.29,25.97,19c7.67,7.67,14.03,16.38,18.94,25.84c0.06,0.12,0.12,0.24,0.18,0.36
			c2.84,5.52,5.19,11.3,7.02,17.28C127.4,441.27,104.99,456.75,85.72,475.79z"/>
	</g>
</g>
<g id="REGLAS_Y_TAMAÑOS">
</g>
</svg>
