<?xml version="1.0" encoding="utf-8"?>
<!-- Generator: Adobe Illustrator 27.0.1, SVG Export Plug-In . SVG Version: 6.00 Build 0)  -->
<svg version="1.1" xmlns="http://www.w3.org/2000/svg" xmlns:xlink="http://www.w3.org/1999/xlink" x="0px" y="0px"
	 viewBox="0 0 512 512" style="enable-background:new 0 0 512 512;" xml:space="preserve">
<g id="ICONOS">
</g>
<g id="REGLAS_Y_TAMAÑOS">
	<g>
		<path style="fill:#7900FF;" d="M417.29,250.88c-12.7,0-23.04,10.34-23.04,23.04v179.2c0,7.06-5.74,12.8-12.8,12.8H58.89
			c-7.06,0-12.8-5.74-12.8-12.8V94.72c0-7.06,5.74-12.8,12.8-12.8h215.04c12.7,0,23.04-10.34,23.04-23.04
			c0-12.7-10.34-23.04-23.04-23.04H58.89c-32.47,0-58.88,26.41-58.88,58.88v358.4c0,32.47,26.41,58.88,58.88,58.88h322.56
			c32.47,0,58.88-26.41,58.88-58.88v-179.2C440.33,261.22,430,250.88,417.29,250.88z"/>
		<path style="fill:#7900FF;" d="M490.43,21.6C476.51,7.67,458,0,438.32,0c-0.09,0.01-0.14,0-0.21,0c-19.37,0-38.3,7.87-51.94,21.61
			L150.11,257.64c-2.5,2.51-4.41,5.62-5.54,8.99l-35.84,107.52c-1.95,5.84-1.5,12.09,1.25,17.59c2.75,5.5,7.49,9.61,13.32,11.55
			c2.34,0.78,4.79,1.18,7.28,1.18c2.47,0,4.91-0.4,7.27-1.18l107.52-35.84c3.38-1.13,6.49-3.06,9.01-5.57l236.04-236.04
			C519.17,97.11,519.17,50.34,490.43,21.6z M465.93,73.75c0.02,7.28-2.93,14.39-8.08,19.53L225.74,325.39L167,345.01l19.55-58.64
			l232.19-232.1c5.22-5.21,12.16-8.08,19.53-8.08c0.01,0,0.02,0,0.03,0c7.39,0.01,14.33,2.89,19.55,8.12
			C463.04,59.5,465.91,66.41,465.93,73.75z"/>
	</g>
</g>
</svg>
