<?xml version="1.0" encoding="utf-8"?>
<!-- Generator: Adobe Illustrator 27.0.0, SVG Export Plug-In . SVG Version: 6.00 Build 0)  -->
<svg version="1.1" xmlns="http://www.w3.org/2000/svg" xmlns:xlink="http://www.w3.org/1999/xlink" x="0px" y="0px"
	 viewBox="0 0 512 512" style="enable-background:new 0 0 512 512;" xml:space="preserve">
<g id="ICONOS">
</g>
<g id="REGLAS_Y_TAMAÑOS">
	<g>
		
			<linearGradient id="SVGID_1_" gradientUnits="userSpaceOnUse" x1="92.9672" y1="13251.1533" x2="519.0334" y2="13677.2197" gradientTransform="matrix(1 0 0 -1 -50 13720.1855)">
			<stop  offset="0" style="stop-color:#F0D562"/>
			<stop  offset="0.5" style="stop-color:#D04431"/>
			<stop  offset="1" style="stop-color:#B03DAD"/>
		</linearGradient>
		<path style="fill:url(#SVGID_1_);" d="M510.46,150.46c-1.25-27.25-5.57-45.86-11.9-62.14c-6.43-17.08-16.5-32.55-29.53-45.34
			c-12.79-13.02-28.26-23.11-45.34-29.54C407.4,7.11,388.8,2.79,361.55,1.55C334.25,0.3,325.52,0,256,0s-78.25,0.3-105.55,1.54
			c-27.25,1.25-45.86,5.57-62.14,11.9c-17.08,6.43-32.55,16.5-45.34,29.53C29.95,55.76,19.86,71.23,13.43,88.31
			C7.11,104.6,2.79,123.21,1.55,150.45C0.3,177.76,0,186.47,0,256c0,69.53,0.3,78.25,1.55,105.55c1.24,27.25,5.57,45.86,11.9,62.14
			c6.43,17.08,16.5,32.55,29.53,45.34c12.79,13.02,28.26,23.1,45.34,29.53c16.28,6.33,34.89,10.66,62.14,11.9
			c27.3,1.25,36.02,1.54,105.55,1.54s78.25-0.29,105.55-1.54c27.25-1.25,45.86-5.57,62.14-11.9c34.39-13.3,61.57-40.48,74.87-74.87
			c6.33-16.29,10.66-34.89,11.9-62.14C511.7,334.24,512,325.53,512,256C512,186.47,511.7,177.76,510.46,150.46z M464.38,359.45
			c-1.14,24.96-5.31,38.52-8.81,47.54c-8.61,22.33-26.26,39.97-48.59,48.59c-9.02,3.5-22.57,7.68-47.54,8.81
			c-26.99,1.23-35.09,1.49-103.45,1.49c-68.36,0-76.46-0.26-103.45-1.49c-24.96-1.14-38.51-5.31-47.54-8.81
			c-11.12-4.11-21.18-10.65-29.43-19.15c-8.5-8.26-15.05-18.31-19.15-29.43c-3.5-9.02-7.68-22.57-8.81-47.54
			c-1.23-26.99-1.49-35.09-1.49-103.45c0-68.36,0.26-76.45,1.49-103.45c1.14-24.96,5.31-38.52,8.81-47.54
			c4.11-11.12,10.65-21.18,19.15-29.44c8.26-8.5,18.32-15.05,29.44-19.15c9.02-3.51,22.57-7.68,47.54-8.82
			c26.99-1.23,35.09-1.49,103.45-1.49h0c68.36,0,76.45,0.26,103.45,1.5c24.96,1.14,38.51,5.31,47.54,8.81
			c11.12,4.11,21.18,10.65,29.43,19.15c8.5,8.26,15.05,18.32,19.15,29.44c3.51,9.02,7.68,22.57,8.82,47.54
			c1.23,26.99,1.49,35.09,1.49,103.45C465.87,324.36,465.61,332.46,464.38,359.45z"/>
		
			<linearGradient id="SVGID_00000036231093540290804580000015826381378724677014_" gradientUnits="userSpaceOnUse" x1="213.0424" y1="13371.2285" x2="398.9532" y2="13557.1396" gradientTransform="matrix(1 0 0 -1 -50 13720.1855)">
			<stop  offset="0" style="stop-color:#D7753F"/>
			<stop  offset="0.5" style="stop-color:#D04431"/>
			<stop  offset="1" style="stop-color:#CF445D"/>
		</linearGradient>
		<path style="fill:url(#SVGID_00000036231093540290804580000015826381378724677014_);" d="M256,124.54
			c-72.6,0-131.46,58.86-131.46,131.46S183.39,387.46,256,387.46c72.61,0,131.46-58.86,131.46-131.46S328.6,124.54,256,124.54z
			 M256,341.33c-47.12,0-85.33-38.21-85.33-85.34c0-47.12,38.2-85.33,85.33-85.33c47.13,0,85.33,38.21,85.33,85.33
			C341.33,303.13,303.12,341.33,256,341.33z"/>
		
			<linearGradient id="SVGID_00000103961194205869370800000008058762945447958707_" gradientUnits="userSpaceOnUse" x1="420.9277" y1="13579.1143" x2="464.3735" y2="13622.5605" gradientTransform="matrix(1 0 0 -1 -50 13720.1855)">
			<stop  offset="0" style="stop-color:#C64272"/>
			<stop  offset="1" style="stop-color:#BB3F8F"/>
		</linearGradient>
		<path style="fill:url(#SVGID_00000103961194205869370800000008058762945447958707_);" d="M423.37,119.35
			c0,16.96-13.75,30.72-30.72,30.72c-16.97,0-30.72-13.75-30.72-30.72c0-16.97,13.75-30.72,30.72-30.72
			C409.62,88.63,423.37,102.38,423.37,119.35z"/>
	</g>
</g>
</svg>
