<?xml version="1.0" encoding="utf-8"?>
<!-- Generator: Adobe Illustrator 27.0.1, SVG Export Plug-In . SVG Version: 6.00 Build 0)  -->
<svg version="1.1" xmlns="http://www.w3.org/2000/svg" xmlns:xlink="http://www.w3.org/1999/xlink" x="0px" y="0px"
	 viewBox="0 0 512 512" style="enable-background:new 0 0 512 512;" xml:space="preserve">
<g id="ICONOS">
	<path style="fill:#6D20F4;" d="M505.75,475.56c-4-4-9.43-6.25-15.08-6.25h-21.34V298.65c-0.03-28.28-11.28-55.39-31.28-75.39
		c-20-20-47.11-31.25-75.39-31.28h-85.34v-63.17c9.51-4.15,17.59-10.98,23.28-19.65c5.68-8.67,8.72-18.81,8.72-29.18
		c-5.76-27.27-18.74-52.49-37.59-73.02c-2-2.19-4.43-3.93-7.14-5.13c-2.71-1.19-5.64-1.81-8.6-1.81s-5.89,0.62-8.6,1.81
		c-2.71,1.19-5.14,2.94-7.14,5.13c-18.84,20.54-31.83,45.76-37.59,73.02c0.01,10.37,3.04,20.51,8.72,29.18
		c5.68,8.67,13.77,15.5,23.28,19.65v63.17h-85.33c-28.28,0.03-55.39,11.28-75.39,31.28c-20,20-31.25,47.11-31.28,75.39v170.67H21.33
		c-5.66,0-11.08,2.25-15.08,6.25c-4,4-6.25,9.43-6.25,15.08c0,5.66,2.25,11.08,6.25,15.09c4,4,9.43,6.25,15.08,6.25h469.33
		c5.66,0,11.08-2.25,15.08-6.25c4-4,6.25-9.43,6.25-15.09C512,484.99,509.75,479.56,505.75,475.56z M426.67,469.31H85.33v-85.78
		c19.6-0.87,38.36-8.22,53.33-20.89c16.46,13.72,37.19,21.26,58.61,21.32c21.42,0.06,42.19-7.37,58.72-21
		c16.53,13.63,37.3,21.05,58.72,21c21.42-0.06,42.15-7.6,58.61-21.32c14.98,12.66,33.74,20,53.34,20.86V469.31z M426.67,340.89
		c-19.97-2.13-32-14.93-32-20.9c0-5.66-2.25-11.08-6.25-15.09c-4-4-9.43-6.25-15.09-6.25c-5.66,0-11.08,2.25-15.08,6.25
		c-4,4-6.25,9.43-6.25,15.09c0,7.32-14.55,21.33-37.33,21.33c-23.23,0-37.34-14.8-37.34-21.33c0-5.66-2.25-11.08-6.25-15.09
		c-4-4-9.43-6.25-15.09-6.25c-5.66,0-11.08,2.25-15.08,6.25c-4,4-6.25,9.43-6.25,15.09c0,7.32-14.55,21.33-37.33,21.33
		c-23.23,0-37.33-14.8-37.33-21.33c0-5.66-2.25-11.08-6.25-15.09c-4-4-9.43-6.25-15.08-6.25c-5.66,0-11.08,2.25-15.08,6.25
		s-6.25,9.43-6.25,15.09c0,6.72-12.35,18.94-32,20.93v-42.26c0-16.97,6.74-33.25,18.75-45.25c12-12,28.28-18.75,45.25-18.75h213.33
		c16.97,0,33.25,6.74,45.25,18.75c12,12,18.75,28.28,18.75,45.25V340.89z"/>
</g>
<g id="REGLAS_Y_TAMAÑOS">
</g>
</svg>
