<?xml version="1.0" encoding="utf-8"?>
<!-- Generator: Adobe Illustrator 27.0.1, SVG Export Plug-In . SVG Version: 6.00 Build 0)  -->
<svg version="1.1" xmlns="http://www.w3.org/2000/svg" xmlns:xlink="http://www.w3.org/1999/xlink" x="0px" y="0px"
	 viewBox="0 0 512 512" style="enable-background:new 0 0 512 512;" xml:space="preserve">
<g id="ICONOS">
	<path style="fill:#6D20F4;" d="M460.31,306.14C452.53,187.68,385.08,106.3,271.21,5.76C267.01,2.04,261.61,0,256,0
		c-5.61,0-11.01,2.04-15.22,5.76C126.91,106.31,59.47,187.69,51.69,306.13c-3.46,52.68,14.25,102.64,49.86,140.67
		c38.8,41.43,95.1,65.2,154.45,65.2c59.35,0,115.64-23.76,154.45-65.2C446.07,408.77,463.77,358.81,460.31,306.14z M376.89,415.38
		c-30.14,32.19-74.2,50.65-120.89,50.65s-90.75-18.46-120.89-50.65c-18.98-20.27-40.9-55.15-37.54-106.23
		c5.69-86.64,45.33-151.8,151.48-249.01l6.96-6.37l6.96,6.37c106.15,97.2,145.79,162.36,151.48,249.01
		C417.79,360.23,395.87,395.11,376.89,415.38z"/>
</g>
<g id="REGLAS_Y_TAMAÑOS">
</g>
</svg>
