<?xml version="1.0" encoding="utf-8"?>
<!-- Generator: Adobe Illustrator 27.1.1, SVG Export Plug-In . SVG Version: 6.00 Build 0)  -->
<svg version="1.1" xmlns="http://www.w3.org/2000/svg" xmlns:xlink="http://www.w3.org/1999/xlink" x="0px" y="0px"
	 viewBox="0 0 512 512" style="enable-background:new 0 0 512 512;" xml:space="preserve">
<g id="ICONOS">
	<g>
		<path style="fill:#4F565F;" d="M425.58,118.1l-74.33-74.37C323.3,15.65,285.28-0.1,245.65,0h-96.32
			C90.45,0.07,42.74,47.79,42.67,106.67v298.67c0.07,58.88,47.79,106.6,106.67,106.67h213.33c58.88-0.07,106.6-47.79,106.67-106.67
			V223.68C469.44,184.05,453.68,146.03,425.58,118.1z M298.67,57.26c8.17,4.54,15.71,10.14,22.42,16.64l74.33,74.37
			c6.51,6.7,12.12,14.23,16.66,22.4H320c-11.78,0-21.33-9.55-21.33-21.33V57.26z M426.67,405.33c0,35.35-28.65,64-64,64H149.33
			c-35.35,0-64-28.65-64-64V106.67c0-35.35,28.65-64,64-64h96.32c3.5,0,6.89,0.68,10.35,1v105.66c0,35.35,28.65,64,64,64h105.66
			c0.32,3.46,1,6.83,1,10.35V405.33z"/>
		<path style="fill:#4F565F;" d="M320,320h-42.67v-42.67c0-11.78-9.55-21.33-21.33-21.33c-11.78,0-21.33,9.55-21.33,21.33V320H192
			c-11.78,0-21.33,9.55-21.33,21.33c0,11.78,9.55,21.33,21.33,21.33h42.67v42.67c0,11.78,9.55,21.33,21.33,21.33
			c11.78,0,21.33-9.55,21.33-21.33v-42.67H320c11.78,0,21.33-9.55,21.33-21.33C341.33,329.55,331.78,320,320,320z"/>
	</g>
</g>
<g id="REGLAS_Y_TAMAÑOS">
</g>
</svg>
