<?xml version="1.0" encoding="utf-8"?>
<!-- Generator: Adobe Illustrator 27.0.1, SVG Export Plug-In . SVG Version: 6.00 Build 0)  -->
<svg version="1.1" xmlns="http://www.w3.org/2000/svg" xmlns:xlink="http://www.w3.org/1999/xlink" x="0px" y="0px"
	 viewBox="0 0 512 512" style="enable-background:new 0 0 512 512;" xml:space="preserve">
<g id="ICONOS">
	<path style="fill:#6D20F4;" d="M426.67,148.91H85.33C38.27,148.91,0,187.18,0,234.24v43.52c0,47.06,38.27,85.33,85.33,85.33h341.34
		c47.06,0,85.33-38.27,85.33-85.33v-43.52C512,187.18,473.74,148.91,426.67,148.91z M469.34,277.76c0,23.53-19.14,42.67-42.67,42.67
		h-21.33v-42.99c0-11.8-9.54-21.33-21.33-21.33c-11.79,0-21.33,9.54-21.33,21.33v42.99h-42.68v-42.99c0-11.8-9.54-21.33-21.33-21.33
		c-11.79,0-21.33,9.54-21.33,21.33v42.99h-42.67v-42.99c0-11.8-9.54-21.33-21.33-21.33c-11.79,0-21.33,9.54-21.33,21.33v42.99
		h-42.15v-42.99c0-11.8-9.54-21.33-21.33-21.33c-11.79,0-21.33,9.54-21.33,21.33v42.99H85.36c-23.53,0-42.67-19.14-42.67-42.67
		v-43.52c0-23.53,19.14-42.67,42.67-42.67h341.32c23.53,0,42.67,19.14,42.67,42.67V277.76z"/>
</g>
<g id="REGLAS_Y_TAMAÑOS">
</g>
</svg>
