<?xml version="1.0" encoding="utf-8"?>
<!-- Generator: Adobe Illustrator 27.0.1, SVG Export Plug-In . SVG Version: 6.00 Build 0)  -->
<svg version="1.1" xmlns="http://www.w3.org/2000/svg" xmlns:xlink="http://www.w3.org/1999/xlink" x="0px" y="0px"
	 viewBox="0 0 512 512" style="enable-background:new 0 0 512 512;" xml:space="preserve">
<g id="ICONOS">
	<g>
		<path style="fill:#6D20F4;" d="M264.99,351.07c0-11.05-8.95-20-20-20c-11.05,0-20,8.95-20,20c0,43.52,35.8,78.93,79.8,78.93
			c11.05,0,20-8.95,20-20c0-11.05-8.95-20-20-20C282.84,390,264.99,372.54,264.99,351.07z"/>
		<path style="fill:#6D20F4;" d="M442.68,248.72c-12.4-27.51-29.61-55.61-51.14-83.52c-36.37-47.13-72.41-77.39-73.92-78.66
			c-7.43-6.19-18.21-6.19-25.62,0c-0.71,0.59-12.9,10.81-30.07,28.36c-29.29-62.25-83-107.67-86.11-110.26
			c-7.41-6.19-18.2-6.19-25.62,0C145.91,8.21,45.39,93.22,45.39,191.5c0,59.3,44.57,108.45,102.15,116
			c-3.03,14.8-4.55,29.37-4.55,43.56c0,88.74,72.59,160.93,161.81,160.93c23.61,0,46.4-4.96,67.7-14.73
			c10.04-4.61,14.44-16.48,9.84-26.52c-4.6-10.04-16.48-14.45-26.51-9.84c-16.04,7.35-33.21,11.09-51.02,11.09
			c-67.16,0-121.81-54.25-121.81-120.93c0-14.6,2.02-29.84,6.01-45.44c52.37-11.81,91.6-58.49,91.6-114.12
			c0-11.57-1.4-22.95-3.86-34.04c10.91-12,20.76-21.73,28.05-28.62c33.62,31.81,121.81,124.54,121.81,222.22
			c0,17-3.49,33.44-10.34,48.84c-4.5,10.09,0.04,21.91,10.14,26.41c2.64,1.18,5.4,1.73,8.12,1.73c7.65,0,14.96-4.42,18.27-11.87
			c9.16-20.56,13.8-42.47,13.8-65.11C466.61,318.37,458.56,283.94,442.68,248.72z M162.99,268.51c-42.79,0-77.6-34.54-77.6-77
			c0-60.96,52.67-119.84,77.62-144.3c24.95,24.41,77.59,83.13,77.59,144.3C240.61,233.97,205.79,268.51,162.99,268.51z"/>
	</g>
</g>
<g id="REGLAS_Y_TAMAÑOS">
</g>
</svg>
