<?xml version="1.0" encoding="utf-8"?>
<!-- Generator: Adobe Illustrator 27.0.0, SVG Export Plug-In . SVG Version: 6.00 Build 0)  -->
<svg version="1.1" xmlns="http://www.w3.org/2000/svg" xmlns:xlink="http://www.w3.org/1999/xlink" x="0px" y="0px"
	 viewBox="0 0 512 512" style="enable-background:new 0 0 512 512;" xml:space="preserve">
<g id="ICONOS">
</g>
<g id="REGLAS_Y_TAMAÑOS">
	<g>
		<path style="fill:#4F565F;" d="M493.64,172.99C461.67,71.08,363.48-0.53,255.43,0.04C121.13-2.39,3.83,115.75,6.12,249.75
			C6.26,306.83,25.55,361.6,61.1,405.86c46.96,58.55,116.88,92.67,191.83,93.6c19.46,2.39,29.05-23.93,12.18-34.19
			c-37.88-34.52-66.43-77.95-81.48-125.97h70.43c10.11,0,18.28-8.18,18.28-18.28s-8.18-18.28-18.28-18.28h-79.71
			c-3.21-17.32-5-34.96-5-52.85c0-18.01,1.79-35.72,5.01-53.1h162.26c1.37,7.82,2.54,15.74,3.27,23.82
			c0.87,9.48,8.84,16.62,18.2,16.62c0.55,0,1.11-0.02,1.68-0.07c10.05-0.91,17.46-9.82,16.55-19.87c-0.63-6.9-1.51-13.74-2.55-20.5
			h88.72c4.49,17.09,6.86,34.83,6.86,52.98c0,16.61-2,33.55-5.93,50.35c-2.3,9.82,3.8,19.66,13.64,21.96
			c9.77,2.25,19.66-3.8,21.96-13.64c4.57-19.52,6.89-39.27,6.89-58.67C505.91,223.22,501.75,197.29,493.64,172.99z M49.55,302.73
			c-4.49-17.09-6.86-34.83-6.86-52.98c0-18.09,2.36-35.79,6.87-52.98h87.51c-2.84,17.42-4.3,35.15-4.3,53.1
			c0,17.85,1.46,35.5,4.29,52.85H49.55z M207.32,457.26c-46-10.75-87.44-36.57-117.74-74.34c-10.9-13.45-19.77-28.09-26.92-43.62
			h82.84c1.5,5.22,2.88,10.48,4.64,15.62C162.64,392.05,182.18,426.7,207.32,457.26z M145.5,160.2H62.65
			c7.14-15.5,16.04-30.18,26.99-43.69c30.13-37.63,71.3-63.32,117.56-74.13C178.89,76.92,157.17,117,145.5,160.2z M183.62,160.2
			c0.42-1.3,0.72-2.63,1.17-3.93c14.45-42.75,38.99-81.59,71.26-113.31c31.86,31.88,56.12,70.8,70.46,113.51
			c0.43,1.28,0.65,2.46,1.05,3.73H183.62z M365.51,160.2c-11.2-43.25-33.2-83.42-61.11-118.03c46.22,10.72,87.73,36.55,118.05,74.43
			c10.89,13.43,19.77,28.06,26.92,43.6H365.51z"/>
		<path style="fill:#4F565F;" d="M480.41,346.73l-135.37-94.78c-9.79-6.84-22.07-7.89-32.84-2.87
			c-10.8,5.04-17.87,15.12-18.93,27.03l-14.39,164.61c-1.27,14.43,6.52,27.44,19.82,33.16c13.32,5.77,28.07,2.43,37.69-8.39
			l10.48-11.82l3.64,7.8c0,0.01,0,0.01,0.01,0.02c0,0,0.01,0.01,0.01,0.01l14.67,31.47c5.59,11.98,17.5,19.03,29.94,19.03
			c4.66,0,9.39-1,13.89-3.09L449,490.27c7.98-3.71,14.03-10.34,17.05-18.62c3-8.27,2.61-17.23-1.11-25.21l-18.32-39.28l15.78-0.43
			c14.48-0.41,26.52-9.62,30.68-23.5C497.25,369.35,492.27,355.03,480.41,346.73z M417.79,371.37c-6.16,0.18-11.82,3.43-15.05,8.68
			c-3.23,5.23-3.62,11.75-1.02,17.34l28.57,61.26l-33.46,15.61l-28.57-61.28c-2.95-6.39-9.54-10.58-16.57-10.55
			c-5.18,0-10.18,2.21-13.68,6.14l-21.75,24.52l12.91-147.61l121.38,84.99L417.79,371.37z"/>
	</g>
</g>
</svg>
