<?xml version="1.0" encoding="utf-8"?>
<!-- Generator: Adobe Illustrator 27.0.1, SVG Export Plug-In . SVG Version: 6.00 Build 0)  -->
<svg version="1.1" xmlns="http://www.w3.org/2000/svg" xmlns:xlink="http://www.w3.org/1999/xlink" x="0px" y="0px"
	 viewBox="0 0 512 512" style="enable-background:new 0 0 512 512;" xml:space="preserve">
<g id="ICONOS">
	<g>
		<path style="fill:#6D20F4;" d="M472.35,186.45c-19.65-28.13-29.05-61.16-26.45-93.08c0.29-3.5,0.29-3.5,2.3-23.58
			c1.26-12.57,3.31-33,6.71-67.07L455.17,0H58.82l0.27,2.72c3.4,34.07,5.44,54.46,6.69,66.93c1.97,19.64,1.97,19.64,2.22,22.59
			c2.71,32.02-7.11,65.14-27.66,93.25c-12.97,17.74-14.07,41.39-2.79,60.25c4.58,7.66,6.54,16.71,5.67,26.17
			c-2.79,30.42,2.16,86.55,17.05,134.98c17.68,57.52,42.6,90.29,50.79,101.06c1.03,1.35,1.84,2.42,2.12,2.88l0.73,1.17h286.16
			l0.73-1.17c0.27-0.43,1.05-1.46,2.05-2.77c8.21-10.81,33.21-43.69,50.87-101.17c15.34-49.92,20.07-106.92,16.8-137.43
			c-0.94-8.77,0.91-17.85,5.35-26.25C485.47,225.04,484.12,203.29,472.35,186.45z M77.57,257.48h358.3
			c-0.7,6.86-0.31,11.23,0.13,16.2c0.23,2.63,0.47,5.33,0.58,8.67h-31.44c-27.82,0-58.36,8.28-85.99,23.31
			c-26.82,14.58-49.09,34.64-63.14,56.78c-14.05-22.14-36.32-42.2-63.14-56.78c-27.64-15.03-58.18-23.31-85.99-23.31H77.42
			c0.08-2.47,0.24-4.68,0.4-6.84C78.2,270.16,78.57,265.07,77.57,257.48z M106.87,317.13c28.33,0,61.01,11.38,87.4,30.44
			c28.18,20.36,44.35,46.41,44.35,71.48v58.17H131.7c-29.45-42.67-48.25-99.37-53.09-160.09H106.87z M273.39,477.22v-58.17
			c0-25.1,16.18-51.16,44.39-71.51c26-18.75,59.47-30.4,87.35-30.4h30.25c-4.85,60.72-23.65,117.42-53.09,160.09H273.39z
			 M68.42,206.02c25.5-34.88,37.66-76.33,34.24-116.71c-0.27-3.16-0.34-3.93-1.64-16.84c-0.75-7.5-1.92-19.12-3.77-37.69h319.49
			c-1.79,17.97-2.94,29.43-3.7,37.03c-1.35,13.44-1.49,14.84-1.81,18.81c-3.24,39.9,8.34,81.01,32.61,115.75
			c3.33,4.76,4.38,10.76,2.93,16.34H65.24C63.75,216.96,64.89,210.84,68.42,206.02z"/>
		<rect x="238.61" y="163.05" style="fill:#6D20F4;" width="34.78" height="34.78"/>
	</g>
</g>
<g id="REGLAS_Y_TAMAÑOS">
</g>
</svg>
