<?xml version="1.0" encoding="utf-8"?>
<!-- Generator: Adobe Illustrator 27.0.1, SVG Export Plug-In . SVG Version: 6.00 Build 0)  -->
<svg version="1.1" xmlns="http://www.w3.org/2000/svg" xmlns:xlink="http://www.w3.org/1999/xlink" x="0px" y="0px"
	 viewBox="0 0 512 512" style="enable-background:new 0 0 512 512;" xml:space="preserve">
<g id="ICONOS">
	<g>
		<path style="fill:#6D20F4;" d="M238.33,309.3l52.49,52.49l0.74,0.76c2.35,2.37,5.12,4.22,8.22,5.51s6.35,1.93,9.67,1.93
			c3.31,0,6.58-0.64,9.71-1.94c3.08-1.29,5.84-3.14,8.37-5.69c2.27-2.27,3.96-4.81,5.28-7.97c1.29-3.08,1.94-6.34,1.94-9.7
			c0-3.35-0.66-6.61-1.94-9.71c-1.3-3.09-3.16-5.85-5.5-8.17l-45.9-45.76v-96.11c0-6.72-2.62-13.06-7.39-17.82
			c-9.52-9.52-26.12-9.52-35.63,0c-4.77,4.76-7.39,11.09-7.39,17.82v106.48c-0.01,3.33,0.62,6.57,1.88,9.65
			C234.13,304.15,235.96,306.92,238.33,309.3z"/>
		<path style="fill:#6D20F4;" d="M428.68,154.59l22.88-22.74l-2.62-2.65l0,0l2.63,2.64c2.37-2.35,4.21-5.12,5.49-8.22
			c1.27-3.07,1.92-6.32,1.92-9.66c0-3.33-0.64-6.58-1.92-9.67c-1.27-3.08-3.12-5.85-5.49-8.22c-2.38-2.37-5.15-4.2-8.18-5.45
			c-6.15-2.56-13.21-2.56-19.36-0.01c-3.08,1.27-5.85,3.12-8.22,5.49l-22.72,22.87c-32.24-25.73-70.71-41.7-111.67-46.36V50.42
			h28.04c6.72,0,13.06-2.62,17.82-7.39c4.77-4.76,7.39-11.09,7.39-17.82s-2.62-13.06-7.39-17.82C322.51,2.62,316.18,0,309.45,0
			H202.96c-6.64,0-13.13,2.69-17.82,7.39c-4.77,4.76-7.39,11.09-7.39,17.82s2.62,13.06,7.38,17.82c4.7,4.7,11.19,7.39,17.83,7.39
			H231v22.17c-46.5,5.32-90.81,25.68-125.1,57.55c-36.03,33.5-60.09,78.72-67.71,127.35c-7.6,48.61,1.46,99.01,25.52,141.93
			c24.07,42.93,62.36,76.95,107.81,95.8C198.4,506.37,227.24,512,256.11,512c19.99,0,40-2.71,59.39-8.13
			c47.37-13.29,89.45-42.48,118.49-82.22c29.03-39.74,44.06-88.7,42.3-137.88C474.63,236.99,457.74,191.24,428.68,154.59z
			 M223.04,124.67c11.04-2.2,22.17-3.28,33.27-3.28c22.19,0,44.2,4.36,64.97,12.96c31.18,12.9,57.57,34.55,76.32,62.63
			c18.74,28.04,28.64,60.71,28.64,94.46c0,22.44-4.36,44.32-12.94,65.05c-8.61,20.77-21.01,39.32-36.86,55.17
			c-15.88,15.88-34.43,28.27-55.16,36.85c-20.72,8.59-42.61,12.95-65.07,12.95c-33.77,0-66.43-9.92-94.46-28.66
			c-28.06-18.75-49.71-45.14-62.63-76.32s-16.25-65.15-9.67-98.22c6.58-33.1,22.67-63.2,46.53-87.07
			C159.83,147.36,189.94,131.26,223.04,124.67z"/>
	</g>
</g>
<g id="REGLAS_Y_TAMAÑOS">
</g>
</svg>
