<?xml version="1.0" encoding="utf-8"?>
<!-- Generator: Adobe Illustrator 27.1.1, SVG Export Plug-In . SVG Version: 6.00 Build 0)  -->
<svg version="1.1" xmlns="http://www.w3.org/2000/svg" xmlns:xlink="http://www.w3.org/1999/xlink" x="0px" y="0px"
	 viewBox="0 0 512 512" style="enable-background:new 0 0 512 512;" xml:space="preserve">
<g id="ICONOS">
</g>
<g id="REGLAS_Y_TAMAÑOS">
	<g>
		<circle style="fill:#6D20F4;" cx="139.76" cy="436.79" r="8.22"/>
		<path style="fill:#6D20F4;" d="M512,510.78l-2.56-10.21c-2.63-10.53-8.48-19.5-16.19-26.25V362.44
			c9.34-1.73,16.44-9.9,16.44-19.73c0-4.97-1.83-9.76-5.16-13.45l-67.4-74.89c-3.81-4.23-9.26-6.65-14.94-6.65h-11.15V131.13
			c9.55-3.38,16.44-12.41,16.44-23.09c0-7.8-3.76-15.22-10.05-19.83l-110-80.66c-11.51-8.43-27.9-8.43-39.43,0l-58.46,42.87h-88.21
			c-6.05,0-11.87,2.21-16.38,6.23l-66.97,59.53h-5.1c-9.07,0-16.44,7.37-16.44,16.44v16.44c0,9.07,7.38,16.44,16.44,16.44v143.86
			l-25.2,18.91C2.87,331.88,0,337.62,0,343.63c0,9.63,7.17,17.56,16.44,18.9v148.25H512z M49.33,494.34H32.88V362.81h16.44V494.34z
			 M180.86,494.34h-65.76v-98.65h65.76V494.34z M230.18,494.34H197.3v-98.65c0-9.07-7.37-16.44-16.44-16.44h-65.76
			c-9.07,0-16.44,7.37-16.44,16.44v98.65H65.77V362.81h164.42V494.34z M263.07,494.34h-16.44V362.81h16.44V494.34z M283.67,494.34
			c6.31-10.02,17.38-16.44,29.74-16.44h10.61l10.13-10.13c8.03-8.01,22.44-8.01,30.48,0l10.13,10.13h10.61
			c12.36,0,23.44,6.43,29.75,16.44H283.67z M279.5,474.33V362.81h197.3v101.71c-5.47-1.97-11.35-3.06-17.44-3.06h-3.81l-5.31-5.31
			c-7.07-7.07-16.86-11.13-26.87-11.13c-10.01,0-19.79,4.05-26.87,11.13l-5.77,5.77c-1.78-0.19-3.55-0.45-5.38-0.45h-3.81
			l-5.31-5.31c-7.07-7.07-16.86-11.13-26.86-11.13c-10.01,0-19.79,4.05-26.87,11.13l-5.31,5.31h-3.81
			C300.51,461.46,288.66,466.31,279.5,474.33z M433.33,494.34c-4.65-11.94-13.42-21.49-24.47-27.14c8.14-7.37,21.95-7.22,29.76,0.57
			l10.13,10.13h10.61c12.37,0,23.49,6.41,29.79,16.44H433.33z M422.19,264.16c1.03,0,2.04,0.44,2.73,1.22l67.4,74.88
			c0.61,0.67,0.94,1.54,0.94,2.45c0,2.01-1.65,3.66-3.66,3.66H295.67c0.13-0.91,0.28-1.8,0.28-2.74c0-6.01-2.87-11.75-7.68-15.35
			l-85.5-64.12H422.19z M180.86,214.83v-82.21H394.6v82.21h-49.33v-49.32c0-9.07-7.37-16.44-16.44-16.44h-82.21
			c-9.07,0-16.44,7.37-16.44,16.44v49.32H180.86z M197.3,231.27v16.44h-16.44v-16.44H197.3z M198.29,116.18l89.44-63.88l89.43,63.88
			H198.29z M394.6,231.27v16.44h-16.44v-16.44H394.6z M361.72,231.27v16.44h-16.44v-16.44H361.72z M295.95,214.83v-49.32h32.88
			v49.32H295.95z M328.83,231.27v16.44h-16.44v-16.44H328.83z M246.62,214.83v-49.32h32.88v49.32H246.62z M263.07,231.27v16.44
			h-16.44v-16.44H263.07z M279.51,231.27h16.44v16.44h-16.44V231.27z M230.18,231.27v16.44h-16.44v-16.44H230.18z M277.73,20.8
			c2.93-2.14,6.38-3.27,10-3.27s7.07,1.14,9.99,3.27l110,80.66c2.08,1.53,3.32,3.98,3.32,6.57c0,3.74-2.53,6.89-6,7.85l-117.31-83.8
			l-117.32,83.8c-3.44-0.94-5.99-4.12-5.99-7.86c0-2.58,1.24-5.04,3.33-6.57L277.73,20.8z M115.88,68.94
			c1.51-1.34,3.45-2.07,5.47-2.07h65.79l-29.11,21.35c-6.3,4.6-10.05,12.02-10.05,19.82c0,2.87,0.58,5.58,1.49,8.15H62.73
			L115.88,68.94z M32.88,132.62h131.53v16.44H32.88V132.62z M123.31,181.95H90.43c-9.07,0-16.44,7.38-16.44,16.44v32.88
			c0,9.07,7.37,16.44,16.44,16.44h24.67l-65.78,49.33V165.51h115.09v70.3c-7.45-4.22-16.5-5.28-24.79-3.21
			c0.03-0.44,0.13-0.87,0.13-1.33v-32.88C139.76,189.32,132.38,181.95,123.31,181.95z M123.32,231.27H90.43v-32.88h32.88
			L123.32,231.27z M17.53,341.43L138.11,251c2.88-2.15,6.29-3.29,9.87-3.29c3.58,0,6.99,1.13,9.86,3.29l120.58,90.43
			c0.68,0.51,1.09,1.34,1.09,2.2c0,1.51-1.23,2.74-2.74,2.74H19.18c-1.51,0-2.74-1.23-2.74-2.74
			C16.44,342.77,16.85,341.94,17.53,341.43z"/>
		<path style="fill:#6D20F4;" d="M345.27,412.13v-16.44c0-9.06-7.37-16.44-16.44-16.44h-16.44c-9.07,0-16.44,7.37-16.44,16.44v16.44
			c0,9.07,7.38,16.44,16.44,16.44h16.44C337.9,428.57,345.27,421.2,345.27,412.13z M312.39,395.69h16.44l0.01,16.44h-16.46V395.69z"
			/>
		<path style="fill:#6D20F4;" d="M369.94,428.57h16.44c9.07,0,16.44-7.37,16.44-16.44v-16.44c0-9.06-7.37-16.44-16.44-16.44h-16.44
			c-9.07,0-16.44,7.37-16.44,16.44v16.44C353.49,421.2,360.87,428.57,369.94,428.57z M369.94,395.69h16.44l0.02,16.44h-16.46V395.69
			z"/>
		<path style="fill:#6D20F4;" d="M427.48,428.57h16.44c9.07,0,16.44-7.37,16.44-16.44v-16.44c0-9.06-7.38-16.44-16.44-16.44h-16.44
			c-9.07,0-16.44,7.37-16.44,16.44v16.44C411.04,421.2,418.42,428.57,427.48,428.57z M427.48,395.69h16.44l0.02,16.44h-16.46V395.69
			z"/>
		<rect x="263.07" y="83.3" style="fill:#6D20F4;" width="16.44" height="16.44"/>
		<rect x="295.95" y="83.3" style="fill:#6D20F4;" width="16.44" height="16.44"/>
	</g>
</g>
</svg>
