<?xml version="1.0" encoding="utf-8"?>
<!-- Generator: Adobe Illustrator 27.0.1, SVG Export Plug-In . SVG Version: 6.00 Build 0)  -->
<svg version="1.1" xmlns="http://www.w3.org/2000/svg" xmlns:xlink="http://www.w3.org/1999/xlink" x="0px" y="0px"
	 viewBox="0 0 512 512" style="enable-background:new 0 0 512 512;" xml:space="preserve">
<g id="ICONOS">
	<path style="fill:#6D20F4;" d="M462.74,167.69c-31.78-31.39-73.94-48.37-118.68-47.85c-21.07,0.26-41.05,9.52-55.23,25.51
		l-15.51-15.41V17.33C273.33,7.77,265.56,0,256,0c-9.56,0-17.33,7.77-17.33,17.33v112.62l-15.51,15.41
		c-14.18-15.99-34.15-25.26-55.22-25.51c-44.7-0.53-86.89,16.44-118.68,47.84C17.49,199.06,0,240.98,0,285.71v153.87
		C0,479.51,32.49,512,72.42,512c27.55,0,52.33-15.28,64.7-39.89c0.59-0.9,1.17-2.15,1.89-3.71c3.02-6.54,8.65-18.71,24.29-23.93
		l29.82-9.94c29.62-9.87,49.52-37.48,49.52-68.7V196.58c0-6.48-0.83-12.95-2.46-19.27L256,161.59l15.83,15.72
		c-1.63,6.32-2.46,12.8-2.46,19.27v169.26c0,31.22,19.9,58.83,49.51,68.7l29.82,9.94c15.69,5.23,21.28,17.36,24.28,23.88
		c0.72,1.57,1.31,2.83,1.9,3.75c12.37,24.61,37.15,39.89,64.7,39.89c39.93,0,72.41-32.49,72.41-72.41V285.71
		C512,240.99,494.51,199.07,462.74,167.69z M346.12,303.04c9.56,0,17.33-7.77,17.33-17.33v-17.38l29.88,29.68
		c3.27,3.25,7.6,5.04,12.21,5.04c0.03,0,0.05,0,0.08,0c4.62-0.02,8.97-1.84,12.22-5.12c3.26-3.28,5.05-7.64,5.04-12.27
		c-0.02-4.63-1.83-8.97-5.12-12.24l-59.9-59.5h17.98c9.56,0,17.33-7.77,17.33-17.33s-7.78-17.33-17.33-17.33h-52.87l-9.5-9.44
		c7.73-9.61,18.92-15.16,31.03-15.31c35.4-0.44,68.75,13.02,93.9,37.87c25.12,24.82,38.95,57.97,38.95,93.34v153.87
		c0,20.82-16.94,37.75-37.75,37.75c-14.39,0-27.33-8-33.77-20.87l-0.2-0.33c-0.26-0.36-0.84-1.6-1.4-2.8
		c-4.09-8.72-14.97-31.88-44.55-41.74l-29.82-9.94c-15.44-5.14-25.81-19.54-25.81-35.81V209.3l24.75,24.59v51.82
		C328.79,295.27,336.56,303.04,346.12,303.04z M165.87,154.49c0.55,0,1.1,0,1.65,0.01c12.1,0.15,23.3,5.7,31.02,15.31l-9.5,9.44
		h-52.87c-9.56,0-17.33,7.77-17.33,17.33c0,9.5,7.77,17.23,17.33,17.23h17.98c-7.71,7.67-18.03,17.93-28.3,28.16
		c-11.99,11.93-23.92,23.81-31.6,31.44c-3.28,3.26-5.1,7.61-5.12,12.24c-0.02,4.63,1.77,8.99,5.04,12.27
		c3.26,3.28,7.6,5.1,12.23,5.12c0.02,0,0.05,0,0.07,0c4.61,0,8.94-1.79,12.21-5.04l29.88-29.68v17.38c0,9.56,7.77,17.33,17.33,17.33
		s17.33-7.77,17.33-17.33V233.9l24.76-24.59v156.53c0,16.27-10.37,30.67-25.81,35.82l-29.82,9.94
		c-29.6,9.87-40.46,33.02-44.55,41.74c-0.56,1.2-1.15,2.44-1.4,2.8l-0.2,0.33c-6.44,12.87-19.38,20.87-33.77,20.87
		c-20.82,0-37.75-16.94-37.75-37.75V285.71c0-35.38,13.84-68.54,38.97-93.37C98.38,167.9,131.07,154.49,165.87,154.49z"/>
</g>
<g id="REGLAS_Y_TAMAÑOS">
</g>
</svg>
