<?xml version="1.0" encoding="utf-8"?>
<!-- Generator: Adobe Illustrator 27.1.1, SVG Export Plug-In . SVG Version: 6.00 Build 0)  -->
<svg version="1.1" xmlns="http://www.w3.org/2000/svg" xmlns:xlink="http://www.w3.org/1999/xlink" x="0px" y="0px"
	 viewBox="0 0 512 512" style="enable-background:new 0 0 512 512;" xml:space="preserve">
<g id="ICONOS">
	<path style="fill:#6D20F4;" d="M499.42,12.5c-8-8-18.85-12.5-30.16-12.5h-85.34c-5.66,0-11.09,2.25-15.09,6.25
		c-4,4-6.25,9.43-6.25,15.08c0,5.66,2.25,11.08,6.25,15.09c4,4,9.42,6.25,15.09,6.25h55.16l-51.2,51.2
		c-23.34-17.63-51.39-27.95-80.6-29.66c-29.21-1.7-58.27,5.28-83.51,20.08c-19.02-10.99-40.25-17.65-62.14-19.48
		c-21.9-1.84-43.92,1.19-64.51,8.86c-20.6,7.67-39.24,19.8-54.59,35.52C27.17,124.9,15.49,143.81,8.3,164.58
		c-7.2,20.76-9.71,42.86-7.38,64.7c2.35,21.85,9.49,42.91,20.93,61.67c11.42,18.77,26.86,34.77,45.2,46.87
		c18.34,12.1,39.12,20,60.88,23.13v44.37H85.26c-5.66,0-11.09,2.25-15.09,6.25c-4,4-6.25,9.43-6.25,15.09
		c0,5.66,2.25,11.08,6.25,15.08S79.6,448,85.26,448h42.66v42.67c0,5.66,2.25,11.08,6.25,15.08s9.43,6.25,15.09,6.25
		c5.65,0,11.07-2.25,15.07-6.25c4.01-4,6.25-9.43,6.25-15.08V448h42.68c5.65,0,11.07-2.25,15.07-6.25c4.01-4,6.25-9.43,6.25-15.08
		c0-5.66-2.24-11.08-6.25-15.09c-4-4-9.42-6.25-15.07-6.25h-42.68v-44.22c18.76-2.79,36.8-9.17,53.15-18.77
		c29.71,17.39,64.54,23.94,98.55,18.55s65.1-22.38,88-48.1c22.9-25.72,36.19-58.57,37.6-92.97c1.41-34.4-9.12-68.23-29.83-95.75
		l51.2-51.2V128c0,5.66,2.24,11.08,6.24,15.09c4,4,9.44,6.25,15.09,6.25c5.66,0,11.09-2.25,15.09-6.25c4-4,6.25-9.43,6.25-15.09
		V42.67C511.92,31.35,507.42,20.5,499.42,12.5z M187.4,312.66c-16.12,6.33-33.56,8.62-50.77,6.66
		c-17.21-1.96-33.69-8.11-47.97-17.91c-14.29-9.8-25.95-22.95-33.99-38.31c-8.02-15.35-12.17-32.44-12.08-49.77
		c-0.1-17.32,4.05-34.41,12.08-49.77c8.04-15.35,19.7-28.5,33.99-38.3c14.29-9.8,30.76-15.95,47.97-17.91
		c17.21-1.96,34.65,0.32,50.77,6.66c-24.55,27.26-38.15,62.64-38.15,99.33C149.25,250.02,162.85,285.4,187.4,312.66z M373.97,288.72
		c-20,20-47.1,31.25-75.39,31.28c-21.09,0-41.71-6.26-59.26-17.98c-17.54-11.72-31.21-28.38-39.27-47.87
		c-8.07-19.49-10.19-40.94-6.07-61.63c4.11-20.69,14.27-39.7,29.19-54.61c14.92-14.92,33.93-25.08,54.61-29.19
		c20.7-4.12,42.15-2,61.64,6.07c19.49,8.07,36.15,21.75,47.86,39.29c11.72,17.54,17.99,38.16,17.99,59.26
		C405.22,241.61,393.97,268.72,373.97,288.72z"/>
</g>
<g id="REGLAS_Y_TAMAÑOS">
</g>
</svg>
