<?xml version="1.0" encoding="utf-8"?>
<!-- Generator: Adobe Illustrator 27.1.1, SVG Export Plug-In . SVG Version: 6.00 Build 0)  -->
<svg version="1.1" xmlns="http://www.w3.org/2000/svg" xmlns:xlink="http://www.w3.org/1999/xlink" x="0px" y="0px"
	 viewBox="0 0 512 512" style="enable-background:new 0 0 512 512;" xml:space="preserve">
<g id="ICONOS">
</g>
<g id="REGLAS_Y_TAMAÑOS">
	<g>
		<path style="fill:#3E77CA;" d="M85.33,0h341.33C473.79,0,512,38.21,512,85.33v341.33c0,47.13-38.21,85.33-85.33,85.33H85.33
			C38.21,512,0,473.79,0,426.67V85.33C0,38.21,38.21,0,85.33,0z"/>
		<g>
			<path style="fill:#FFFFFF;" d="M256,392.73c-110.43,0-171.75-120.09-174.31-125.21c-2.25-4.5-2.25-9.81,0-14.31
				C84.25,248.09,145.57,128,256,128c110.44,0,171.75,120.09,174.31,125.21c2.25,4.51,2.25,9.8,0,14.31
				C427.75,272.63,366.43,392.73,256,392.73z M114.3,260.36c14.15,24.06,65.06,100.36,141.7,100.36
				c76.65,0,127.55-76.3,141.7-100.36C383.55,236.3,332.64,160,256,160C179.36,160,128.44,236.3,114.3,260.36z"/>
		</g>
		<g>
			<path style="fill:#FFFFFF;" d="M256,320c-32.89,0-59.64-26.75-59.64-59.64s26.75-59.64,59.64-59.64s59.65,26.75,59.65,59.64
				S288.88,320,256,320z M256,232.73c-15.24,0-27.64,12.4-27.64,27.64c0,15.24,12.4,27.64,27.64,27.64
				c15.24,0,27.65-12.4,27.65-27.64C283.64,245.12,271.24,232.73,256,232.73z"/>
		</g>
	</g>
</g>
</svg>
