<?xml version="1.0" encoding="utf-8"?>
<!-- Generator: Adobe Illustrator 27.1.1, SVG Export Plug-In . SVG Version: 6.00 Build 0)  -->
<svg version="1.1" xmlns="http://www.w3.org/2000/svg" xmlns:xlink="http://www.w3.org/1999/xlink" x="0px" y="0px"
	 viewBox="0 0 512 512" style="enable-background:new 0 0 512 512;" xml:space="preserve">
<g id="ICONOS">
	<g>
		<path style="fill:#989898;" d="M292.57,36.57C171.4,36.57,73.14,134.83,73.14,256H0l94.85,94.84l1.7,3.41l98.5-98.26H121.9
			c0-94.35,76.32-170.67,170.67-170.67c94.36,0,170.67,76.31,170.67,170.67s-76.31,170.67-170.67,170.67
			c-47.05,0-89.71-19.26-120.44-50.22l-34.62,34.62c39.74,39.74,94.36,64.37,155.06,64.37C413.75,475.43,512,377.17,512,256
			C512,134.83,413.75,36.57,292.57,36.57z"/>
		<polygon style="fill:#989898;" points="268.19,158.48 268.19,280.38 372.55,342.31 390.1,312.81 304.76,262.1 304.76,158.48 		"/>
	</g>
</g>
<g id="REGLAS_Y_TAMAÑOS">
</g>
</svg>
