<?xml version="1.0" encoding="utf-8"?>
<!-- Generator: Adobe Illustrator 27.0.1, SVG Export Plug-In . SVG Version: 6.00 Build 0)  -->
<svg version="1.1" xmlns="http://www.w3.org/2000/svg" xmlns:xlink="http://www.w3.org/1999/xlink" x="0px" y="0px"
	 viewBox="0 0 512 512" style="enable-background:new 0 0 512 512;" xml:space="preserve">
<g id="ICONOS">
	<g>
		<path style="fill:#6D20F4;" d="M178.21,219.67l-0.03-0.24c-0.89-7.62-7.38-13.27-14.9-13.27c-0.53,0-1.06,0.03-1.6,0.08
			c-8.27,0.79-14.33,8.14-13.55,16.37l18.57,202.38c0.77,7.69,7.19,13.48,14.94,13.48c0.03,0,0.05,0,0.08,0h1.7
			c8.23-0.87,14.22-8.27,13.36-16.5L178.21,219.67z"/>
		<path style="fill:#6D20F4;" d="M452.78,4.98l-0.02-0.02c-2.83-3.14-6.88-4.95-11.11-4.96H70.34c-4.22,0.01-8.27,1.82-11.1,4.96
			c-2.85,3.11-4.28,7.27-3.93,11.44l13.92,146.82l31.56,335.11c0.71,7.81,7.13,13.68,14.95,13.68c0.02,0,0.04,0,0.06,0h280.54
			c7.84,0.05,14.32-5.84,15.03-13.67l45.3-481.98C457.04,12.22,455.61,8.06,452.78,4.98z M382.51,482.71H129.49l-29.32-309.99
			l2.26-1.06c52.11-24.44,101.34-47.53,184.99-12.88c38.3,16.6,78.01,30.85,118.07,42.38l2.82,0.81L382.51,482.71z M411.93,171.7
			l-4.14-1.23c-36.9-10.98-73.57-24.21-108.99-39.31c-87.1-36.37-145.02-16.11-196.89,7.76l-4.54,2.09L86.86,30.03h338.26
			L411.93,171.7z"/>
	</g>
</g>
<g id="REGLAS_Y_TAMAÑOS">
</g>
</svg>
