<?xml version="1.0" encoding="utf-8"?>
<!-- Generator: Adobe Illustrator 27.0.1, SVG Export Plug-In . SVG Version: 6.00 Build 0)  -->
<svg version="1.1" xmlns="http://www.w3.org/2000/svg" xmlns:xlink="http://www.w3.org/1999/xlink" x="0px" y="0px"
	 viewBox="0 0 512 512" style="enable-background:new 0 0 512 512;" xml:space="preserve">
<g id="ICONOS">
	<g>
		<path style="fill:#6D20F4;" d="M256,279.29c77.13,0,139.65-62.51,139.65-139.65C395.65,62.51,333.13,0,256,0
			c-77.13,0-139.65,62.51-139.65,139.65C116.46,216.78,178.87,279.18,256,279.29z M256,46.59c51.39,0,93.06,41.68,93.06,93.06
			c0,51.39-41.67,93.06-93.06,93.06c-51.39,0-93.06-41.68-93.06-93.06C162.94,88.26,204.61,46.59,256,46.59z"/>
		<path style="fill:#6D20F4;" d="M256.11,279.29C140.46,279.4,46.75,373.12,46.64,488.76c0,12.87,10.47,23.24,23.24,23.24
			s23.24-10.47,23.24-23.24c0-90.01,72.99-162.89,162.88-162.89c89.9,0,162.88,72.99,162.88,162.89c0,12.87,10.47,23.24,23.24,23.24
			s23.24-10.47,23.24-23.24C465.47,373.12,371.75,279.4,256.11,279.29z"/>
	</g>
</g>
<g id="REGLAS_Y_TAMAÑOS">
</g>
</svg>
