<?xml version="1.0" encoding="utf-8"?>
<!-- Generator: Adobe Illustrator 27.1.1, SVG Export Plug-In . SVG Version: 6.00 Build 0)  -->
<svg version="1.1" xmlns="http://www.w3.org/2000/svg" xmlns:xlink="http://www.w3.org/1999/xlink" x="0px" y="0px"
	 viewBox="0 0 512 512" style="enable-background:new 0 0 512 512;" xml:space="preserve">
<g id="ICONOS">
</g>
<g id="REGLAS_Y_TAMAÑOS">
	<g>
		<path style="fill:#6D20F4;" d="M238.58,106.96c3.96,0,7.16-3.2,7.16-7.16V89.55h20.53v10.26c0,3.95,3.21,7.16,7.16,7.16
			c3.95,0,7.16-3.2,7.16-7.16l0,0V64.97c0-2.29-0.88-4.1-2.27-5.31c-1.37-1.2-3.15-1.77-4.89-1.77c-1.74,0-3.52,0.57-4.89,1.77
			c-1.39,1.22-2.27,3.02-2.27,5.31v10.26h-20.53V64.97c0-2.29-0.88-4.1-2.27-5.31c-1.37-1.2-3.15-1.77-4.89-1.77
			c-1.74,0-3.52,0.57-4.89,1.77c-1.39,1.22-2.27,3.02-2.27,5.31v34.84C231.42,103.76,234.63,106.96,238.58,106.96z M279.39,99.81
			L279.39,99.81L279.39,99.81h0.17H279.39z"/>
		<path style="fill:#6D20F4;" d="M446.4,337.69l-25.86,0c-7.46,0-13.52,6.06-13.52,13.52v49.01c0,7.46,6.06,13.52,13.52,13.52h25.86
			c7.46,0,13.52-6.06,13.52-13.52v-49.01C459.92,343.75,453.85,337.69,446.4,337.69z M421.73,352.01h23.5l0.37,47.04l-23.87,0.35
			V352.01z"/>
		<path style="fill:#6D20F4;" d="M420.54,263.28h25.86c7.46,0,13.52-6.06,13.52-13.52v-49c0-7.46-6.07-13.52-13.52-13.52h-25.86
			c-7.46,0-13.52,6.06-13.52,13.52v49C407.02,257.21,413.08,263.28,420.54,263.28z M421.73,201.55l23.5,0l0.37,47.04l-23.87,0.36
			V201.55z"/>
		<path style="fill:#6D20F4;" d="M231.22,194.96c2.58,2.95,6.69,4.03,12.66,4.45c6,0.43,14.31,0.21,25.62,0.21
			c8.2,0,14.88-6.67,14.88-14.87c0-11.95,0.3-20.82,0.03-27.28c-0.26-6.41-1.08-10.88-3.63-13.79c-2.59-2.95-6.7-4.03-12.67-4.45
			c-6-0.43-14.31-0.21-25.62-0.21c-8.2,0-14.87,6.67-14.87,14.87c0,11.95-0.3,20.82-0.03,27.28
			C227.86,187.58,228.67,192.05,231.22,194.96z M241.94,153.88c0-0.29,0.26-0.56,0.56-0.56l27.01,0c0.29,0,0.56,0.26,0.56,0.56
			v30.86c0,0.29-0.26,0.56-0.56,0.56l-27.01,0c-0.29,0-0.56-0.26-0.56-0.56V153.88z"/>
		<path style="fill:#6D20F4;" d="M91.46,337.69l-25.86,0c-7.45,0-13.52,6.06-13.52,13.52v49.01c0,7.46,6.06,13.52,13.52,13.52h25.86
			c7.46,0,13.52-6.06,13.52-13.52v-49.01C104.98,343.75,98.92,337.69,91.46,337.69z M66.79,352.01h23.5l0.37,47.04l-23.87,0.35
			V352.01z"/>
		<path style="fill:#6D20F4;" d="M504.84,430.28h-14.06V321.14h12.13c3.95,0,7.16-3.21,7.16-7.16l0,0v-27.01
			c0-3.95-3.21-7.16-7.16-7.16h-12.13V170.68h12.13c3.95,0,7.16-3.2,7.16-7.15l0,0v-27.01c0-3.95-3.21-7.16-7.16-7.16H390.48v-4.98
			h8.27c3.95,0,7.16-3.2,7.16-7.16V90.22c0-3.95-3.21-7.16-7.16-7.16h-80.5v-15.6c0-14.92-12.14-27.06-27.07-27.06h-70.37
			c-14.92,0-27.06,12.14-27.06,27.06v15.6h-80.5c-3.95,0-7.16,3.21-7.16,7.16v27.01c0,3.95,3.21,7.16,7.16,7.16h8.28v4.98H9.09
			c-3.95,0-7.16,3.21-7.16,7.16v27.01c0,3.95,3.21,7.16,7.16,7.16h12.13v109.15H9.09c-3.95,0-7.16,3.21-7.16,7.16v27.01
			c0,3.95,3.21,7.16,7.16,7.16h12.13v109.14H7.16c-3.95,0-7.16,3.21-7.16,7.16v27.01c0,3.95,3.21,7.16,7.16,7.16h497.68
			c3.95,0,7.16-3.21,7.16-7.16v-27.01C512,433.49,508.79,430.28,504.84,430.28z M14.31,457.29V444.6h14.06c0,0,0.01,0,0.01,0h100.3
			c0.01,0,0.01,0,0.01,0h63.66h131.17h59.8h1.13v0h99.18c0,0,0.01,0,0.01,0h14.05v12.69H14.31z M16.25,294.14h12.13v0h40.51l52.64,0
			v12.68H16.25V294.14z M16.25,143.67h105.29v12.69H28.38H16.25V143.67z M120.41,97.38l73.34,0v12.69h-65.06c0,0-0.01,0-0.01,0
			h-8.27V97.38z M208.07,67.46c0-7.03,5.71-12.75,12.74-12.75h70.37c7.03,0,12.75,5.72,12.75,12.75v22.76v19.85h-95.86V90.22v0
			V67.46z M391.59,110.07h-8.26c-0.01,0-0.01,0-0.01,0h-65.07V97.38l73.34,0V110.07z M135.85,124.38h65.07h110.18h65.07v12.13
			c0,0,0,0,0,0v27.01c0,0,0,0,0,0v123.45c0,0,0,0,0,0v27.01c0,0,0,0,0,0v116.29h-45.49v-93.71h8.18c7.19,0,13.04-5.86,13.04-13.04
			c0-3.85,0.52-9.93-0.76-14.93c-0.65-2.54-1.79-4.94-3.79-6.7c-2.02-1.78-4.79-2.8-8.49-2.8H177.01c-7.2,0-13.04,5.85-13.04,13.04
			c0,3.86-0.52,9.93,0.76,14.93c0.65,2.54,1.79,4.94,3.79,6.7c2.02,1.78,4.79,2.79,8.49,2.79h8.18v93.71h-49.34v-116.3v0v-27V163.53
			v0v-27.01V124.38z M495.76,156.37h-12.13h-93.15v-12.69h105.28V156.37z M495.76,306.82H390.48v-12.68h52.64l52.64,0V306.82z
			 M476.47,279.82h-85.99V170.68h85.99V279.82z M177.1,323.53L177.1,323.53L177.1,323.53L177.1,323.53L177.1,323.53z M177.01,312.24
			L177.01,312.24L177.01,312.24L177.01,312.24L177.01,312.24L177.01,312.24L177.01,312.24z M338.76,312.15L338.76,312.15
			L338.76,312.15L338.76,312.15L338.76,312.15z M338.76,323.44L338.76,323.44L338.76,323.44L338.76,323.44L338.76,323.44
			L338.76,323.44L338.76,323.44z M178.28,322.35l-0.07-8.92l159.37-0.09l0,8.92l-14.01,0.01c-0.02,0-0.03-0.01-0.05-0.01H192.35
			c-0.14,0-0.26,0.07-0.41,0.08L178.28,322.35z M265.09,430.28v-93.71h51.27v93.71H265.09z M250.77,336.58v93.71h-51.27v-93.71
			H250.77z M121.53,279.82H35.54V170.68h85.99V279.82z M390.48,430.28V321.14h85.99v109.14H390.48z M35.54,321.14h85.99v109.14
			H35.54V321.14z M496.95,292.96L496.95,292.96L496.95,292.96L496.95,292.96L496.95,292.96z"/>
		<path style="fill:#6D20F4;" d="M282.63,383.44c-0.06-2.27-0.18-4.51-0.18-6.68c0-2.29-0.88-4.1-2.27-5.31
			c-1.37-1.2-3.15-1.77-4.89-1.77c-1.74,0-3.52,0.57-4.89,1.77c-1.39,1.22-2.27,3.02-2.27,5.31c0,2.17-0.12,4.41-0.18,6.67
			c-0.06,2.23-0.06,4.45,0.2,6.42c0.26,1.95,0.8,3.8,1.94,5.18c1.19,1.44,2.91,2.22,5.2,2.22c2.28,0,4-0.78,5.19-2.21
			c1.14-1.38,1.68-3.23,1.94-5.18C282.69,387.89,282.69,385.67,282.63,383.44z"/>
		<path style="fill:#6D20F4;" d="M354.08,228.54c-2.59-2.95-6.7-4.03-12.67-4.45c-6-0.43-14.31-0.21-25.61-0.21
			c-8.2,0-14.88,6.67-14.88,14.87c0,11.95-0.3,20.82-0.03,27.28c0.26,6.42,1.08,10.88,3.63,13.79c2.58,2.95,6.69,4.03,12.66,4.45
			c6,0.43,14.31,0.21,25.62,0.21c8.2,0,14.87-6.67,14.88-14.88c0.01-11.95,0.3-20.83,0.03-27.29
			C357.45,235.92,356.64,231.45,354.08,228.54z M343.37,269.61c0,0.29-0.27,0.56-0.56,0.56H315.8c-0.29,0-0.56-0.27-0.56-0.56
			v-30.86c0-0.29,0.27-0.56,0.56-0.56h27.01c0.29,0,0.56,0.27,0.56,0.56V269.61z"/>
		<path style="fill:#6D20F4;" d="M157.92,194.96c2.58,2.95,6.69,4.03,12.66,4.45c6,0.43,14.31,0.21,25.62,0.21
			c8.2,0,14.87-6.67,14.87-14.87l0,0c0-11.95,0.3-20.82,0.03-27.28c-0.26-6.41-1.08-10.88-3.62-13.79
			c-2.58-2.95-6.69-4.03-12.66-4.45c-6-0.43-14.31-0.21-25.63-0.21v1.18c0,0,0,0,0,0v-1.18c-8.2,0-14.87,6.67-14.87,14.87
			c0,11.95-0.3,20.82-0.03,27.28C154.55,187.58,155.37,192.05,157.92,194.96z M169.2,153.32l27.01,0c0.29,0,0.56,0.26,0.56,0.56
			v30.86c0,0.29-0.27,0.56-0.56,0.56l-27.01,0c-0.29,0-0.56-0.27-0.56-0.56v-30.87C168.64,153.59,168.91,153.32,169.2,153.32z"/>
		<path style="fill:#6D20F4;" d="M233.43,389.85c0.26,1.95,0.8,3.8,1.94,5.18c1.19,1.44,2.91,2.22,5.19,2.22c2.28,0,4-0.78,5.2-2.21
			c1.14-1.38,1.68-3.23,1.94-5.18c0.26-1.97,0.26-4.19,0.2-6.41c-0.06-2.27-0.18-4.51-0.18-6.68c0-2.29-0.88-4.1-2.27-5.31
			c-1.37-1.2-3.15-1.77-4.89-1.77c-1.74,0-3.52,0.57-4.89,1.77c-1.39,1.22-2.27,3.02-2.27,5.31c0,2.17-0.12,4.41-0.18,6.67
			C233.17,385.66,233.17,387.88,233.43,389.85z"/>
		<path style="fill:#6D20F4;" d="M304.52,194.96c2.58,2.95,6.7,4.03,12.67,4.45c6,0.43,14.31,0.21,25.62,0.21
			c8.2,0,14.87-6.67,14.88-14.87c0.01-11.95,0.3-20.83,0.03-27.29c-0.27-6.41-1.09-10.88-3.64-13.79c-2.59-2.95-6.7-4.02-12.67-4.45
			c-6-0.43-14.31-0.2-25.61-0.2c-8.2,0-14.88,6.67-14.88,14.87c0,11.95-0.3,20.82-0.03,27.28
			C301.16,187.58,301.97,192.05,304.52,194.96z M315.25,153.88c0-0.29,0.27-0.56,0.56-0.56l27.01,0c0.29,0,0.56,0.26,0.56,0.56
			v30.86c0,0.29-0.26,0.56-0.56,0.56l-27.01,0c-0.29,0-0.56-0.26-0.56-0.56V153.88z"/>
		<path style="fill:#6D20F4;" d="M280.79,228.54c-2.59-2.95-6.7-4.03-12.67-4.45c-6-0.43-14.31-0.21-25.62-0.21
			c-8.2,0-14.87,6.67-14.87,14.87c0,11.95-0.3,20.83-0.03,27.28c0.26,6.41,1.08,10.88,3.63,13.79c2.58,2.95,6.69,4.03,12.66,4.45
			c6,0.43,14.31,0.21,25.62,0.21c8.2,0,14.88-6.67,14.88-14.88c0-11.95,0.3-20.82,0.03-27.28
			C284.15,235.92,283.33,231.46,280.79,228.54z M270.06,269.61c0,0.29-0.27,0.56-0.56,0.56H242.5c-0.29,0-0.56-0.27-0.56-0.56
			v-30.86c0-0.29,0.27-0.56,0.56-0.56h27.01c0.29,0,0.56,0.27,0.56,0.56V269.61z"/>
		<path style="fill:#6D20F4;" d="M207.48,228.55c-2.58-2.95-6.69-4.03-12.66-4.45c-6-0.43-14.31-0.21-25.63-0.21
			c-8.2,0-14.87,6.67-14.87,14.87c0,11.95-0.3,20.83-0.03,27.28c0.26,6.41,1.08,10.88,3.63,13.79c2.58,2.95,6.69,4.03,12.66,4.45
			c6,0.43,14.31,0.21,25.62,0.21c8.2,0,14.87-6.67,14.87-14.88l-1.18,0v0h1.18c0-11.95,0.3-20.82,0.03-27.28
			C210.85,235.92,210.03,231.46,207.48,228.55z M196.76,269.61c0,0.29-0.27,0.56-0.56,0.56H169.2c-0.29,0-0.56-0.27-0.56-0.56
			v-30.86c0-0.29,0.27-0.56,0.56-0.56h27.01c0.29,0,0.56,0.27,0.56,0.56V269.61z"/>
		<path style="fill:#6D20F4;" d="M65.6,263.28h25.86c7.46,0,13.52-6.06,13.52-13.52v-49c0-7.46-6.06-13.52-13.52-13.52H65.6
			c-7.45,0-13.52,6.06-13.52,13.52v49C52.08,257.21,58.15,263.28,65.6,263.28z M66.79,201.55l23.5,0l0.37,47.04l-23.87,0.36V201.55z
			"/>
	</g>
</g>
</svg>
