<?xml version="1.0" encoding="utf-8"?>
<!-- Generator: Adobe Illustrator 27.0.0, SVG Export Plug-In . SVG Version: 6.00 Build 0)  -->
<svg version="1.1" xmlns="http://www.w3.org/2000/svg" xmlns:xlink="http://www.w3.org/1999/xlink" x="0px" y="0px"
	 viewBox="0 0 512 512" style="enable-background:new 0 0 512 512;" xml:space="preserve">
<g id="ICONOS">
</g>
<g id="REGLAS_Y_TAMAÑOS">
	<g>
		<path d="M456.67,0H55.33C24.77,0,0,24.77,0,55.33v401.35C0,487.23,24.77,512,55.33,512h401.35c30.55,0,55.33-24.77,55.33-55.33
			V55.33C512,24.77,487.23,0,456.67,0z M413.93,223.04c-32.41,0-62.45-10.37-86.97-27.97v127.02c0,63.45-51.61,115.06-115.05,115.06
			c-24.51,0-47.24-7.73-65.93-20.86c-29.67-20.83-49.11-55.28-49.11-94.2c0-63.44,51.61-115.05,115.05-115.05
			c5.26,0,10.43,0.43,15.5,1.12v63.82c-4.9-1.54-10.1-2.43-15.5-2.43c-28.98,0-52.54,23.57-52.54,52.54
			c0,20.18,11.44,37.71,28.17,46.51c7.29,3.85,15.57,6.04,24.37,6.04c28.31,0,51.39-22.51,52.44-50.57l0.1-250.5h62.51
			c0,5.41,0.53,10.71,1.48,15.85c4.41,23.82,18.55,44.25,38.13,57.02c13.64,8.89,29.9,14.08,47.36,14.08L413.93,223.04
			L413.93,223.04z"/>
	</g>
</g>
</svg>
