<?xml version="1.0" encoding="utf-8"?>
<!-- Generator: Adobe Illustrator 27.0.1, SVG Export Plug-In . SVG Version: 6.00 Build 0)  -->
<svg version="1.1" xmlns="http://www.w3.org/2000/svg" xmlns:xlink="http://www.w3.org/1999/xlink" x="0px" y="0px"
	 viewBox="0 0 512 512" style="enable-background:new 0 0 512 512;" xml:space="preserve">
<g id="ICONOS">
	<g>
		<rect x="421" y="361" style="fill:#6D20F4;" width="30" height="30"/>
		<path style="fill:#6D20F4;" d="M93.07,250.89c19.45,12.97,45,20.11,71.93,20.11s52.48-7.14,71.93-20.11
			C258.26,236.68,270,217.18,270,196s-11.74-40.68-33.07-54.89C217.48,128.14,191.94,121,165,121s-52.48,7.14-71.93,20.11
			C71.74,155.32,60,174.82,60,196S71.74,236.68,93.07,250.89z M165,151c40.65,0,75,20.61,75,45s-34.35,45-75,45s-75-20.61-75-45
			S124.35,151,165,151z"/>
		<path style="fill:#6D20F4;" d="M330,301V196c0-36.7-17.6-71-49.56-96.57C249.46,74.65,208.46,61,165,61S80.54,74.65,49.56,99.43
			C17.6,125,0,159.3,0,196v120c0,80.02,80.37,135,165,135h347V301H330z M165,91c74.44,0,135,47.1,135,105s-60.56,105-135,105
			S30,253.9,30,196S90.56,91,165,91z M300,273.8V301h-31.14c3.99-2.65,7.86-5.46,11.58-8.43C287.72,286.74,294.25,280.46,300,273.8z
			 M360,421h-30v-60h-30v60h-30v-30h-30v30h-30v-60h-30v59.35c-4.97,0.43-9.98,0.65-15,0.65c-74.44,0-135-47.1-135-105v-42.2
			c5.75,6.66,12.28,12.94,19.56,18.77C80.54,317.35,121.54,331,165,331h195V421z M482,421h-92v-90h92V421z"/>
		<rect x="120" y="181" style="fill:#6D20F4;" width="90" height="30"/>
	</g>
</g>
<g id="REGLAS_Y_TAMAÑOS">
</g>
</svg>
