<?xml version="1.0" encoding="utf-8"?>
<!-- Generator: Adobe Illustrator 27.0.1, SVG Export Plug-In . SVG Version: 6.00 Build 0)  -->
<svg version="1.1" xmlns="http://www.w3.org/2000/svg" xmlns:xlink="http://www.w3.org/1999/xlink" x="0px" y="0px"
	 viewBox="0 0 512 512" style="enable-background:new 0 0 512 512;" xml:space="preserve">
<g id="ICONOS">
	<path style="fill-rule:evenodd;clip-rule:evenodd;fill:#6D20F4;" d="M457.36,247.79c-3.11-6.37-9.71-10.48-16.79-10.48H353.8V18.69
		c0-4.99-1.94-9.69-5.47-13.22C344.79,1.94,340.1,0,335.1,0H176.9c-10.31,0-18.69,8.39-18.69,18.69v218.61H71.43
		c-7.09,0-13.68,4.11-16.79,10.48c-3.11,6.37-2.31,14.1,2.04,19.69l184.57,237.31c3.57,4.59,8.94,7.22,14.75,7.22
		c5.81,0,11.19-2.63,14.76-7.22l184.57-237.31C459.68,261.88,460.48,254.15,457.36,247.79z M256,462.86L109.65,274.69h67.25
		c4.99,0,9.69-1.94,13.22-5.48c3.53-3.53,5.47-8.22,5.47-13.22V37.39h120.82V256c0,10.31,8.39,18.69,18.69,18.69h67.25L256,462.86z"
		/>
</g>
<g id="REGLAS_Y_TAMAÑOS">
</g>
</svg>
