<?xml version="1.0" encoding="utf-8"?>
<!-- Generator: Adobe Illustrator 27.1.1, SVG Export Plug-In . SVG Version: 6.00 Build 0)  -->
<svg version="1.1" xmlns="http://www.w3.org/2000/svg" xmlns:xlink="http://www.w3.org/1999/xlink" x="0px" y="0px"
	 viewBox="0 0 512 512" style="enable-background:new 0 0 512 512;" xml:space="preserve">
<g id="ICONOS">
	<g>
		<path d="M469.27,0h-85.33c-11.78,0-21.33,9.55-21.33,21.33s9.55,21.33,21.33,21.33h55.17l-51.2,51.2
			c-47.75-36.06-112.5-39.84-164.12-9.58c-71.3-41.2-162.49-16.8-203.69,54.5s-16.8,162.49,54.5,203.69
			c16.44,9.5,34.55,15.77,53.34,18.48v44.37H85.27c-11.78,0-21.33,9.55-21.33,21.33c0,11.78,9.55,21.33,21.33,21.33h42.67v42.67
			c0,11.78,9.55,21.33,21.33,21.33s21.33-9.55,21.33-21.33V448h42.67c11.78,0,21.33-9.55,21.33-21.33
			c0-11.78-9.55-21.33-21.33-21.33H170.6v-44.22c18.75-2.79,36.79-9.17,53.14-18.77c71.05,41.56,162.33,17.65,203.89-53.4
			c30.33-51.86,26.56-116.86-9.56-164.86l51.2-51.2V128c0,11.78,9.55,21.33,21.33,21.33c11.78,0,21.33-9.55,21.33-21.33V42.67
			C511.93,19.1,492.83,0,469.27,0z M42.6,213.33c-0.34-58.57,46.86-106.32,105.43-106.67c13.47-0.08,26.84,2.41,39.38,7.34
			c-50.86,56.45-50.86,142.2,0,198.66c-54.52,21.41-116.06-5.43-137.47-59.94C45.01,240.17,42.52,226.81,42.6,213.33z M298.6,320
			c-58.91,0-106.67-47.76-106.67-106.67s47.76-106.67,106.67-106.67s106.67,47.76,106.67,106.67
			C405.2,272.21,357.48,319.93,298.6,320z"/>
	</g>
</g>
<g id="REGLAS_Y_TAMAÑOS">
</g>
</svg>
