<?xml version="1.0" encoding="utf-8"?>
<!-- Generator: Adobe Illustrator 27.1.1, SVG Export Plug-In . SVG Version: 6.00 Build 0)  -->
<svg version="1.1" xmlns="http://www.w3.org/2000/svg" xmlns:xlink="http://www.w3.org/1999/xlink" x="0px" y="0px"
	 viewBox="0 0 512 512" style="enable-background:new 0 0 512 512;" xml:space="preserve">
<g id="ICONOS">
</g>
<g id="REGLAS_Y_TAMAÑOS">
	<g>
		<path style="fill:#C74830;" d="M85.33,0h341.33C473.79,0,512,38.21,512,85.33v341.33c0,47.13-38.21,85.33-85.33,85.33H85.33
			C38.21,512,0,473.79,0,426.67V85.33C0,38.21,38.21,0,85.33,0z"/>
		<g>
			<path style="fill:#FFFFFF;" d="M329.6,416h-144c-11.95,0-23.2-4.66-31.67-13.11c-8.48-8.49-13.14-19.74-13.14-31.69V185.6H128
				c-8.83,0-16-7.17-16-16c0-8.83,7.17-16,16-16h56v-12.8c0-11.96,4.66-23.2,13.1-31.67C205.6,100.66,216.84,96,228.8,96h57.6
				c11.96,0,23.2,4.66,31.67,13.1c8.48,8.47,13.14,19.72,13.14,31.69v12.8h56c8.83,0,16,7.17,16,16c0,8.83-7.17,16-16,16h-12.8
				v185.6c0,11.97-4.66,23.22-13.12,31.68C352.93,411.22,341.39,416,329.6,416z M172.8,185.6v185.6c0,3.36,1.38,6.67,3.76,9.06
				c2.38,2.36,5.68,3.74,9.04,3.74h144c3.36,0,6.67-1.36,9.05-3.75c2.42-2.42,3.75-5.64,3.75-9.05V185.6H172.8z M216,153.6h83.2
				v-12.8c0-3.42-1.33-6.64-3.75-9.05c-2.42-2.41-5.64-3.74-9.05-3.74h-57.6c-3.42,0-6.64,1.33-9.06,3.75
				c-2.4,2.41-3.73,5.62-3.73,9.04V153.6z"/>
		</g>
	</g>
</g>
</svg>
