<?xml version="1.0" encoding="utf-8"?>
<!-- Generator: Adobe Illustrator 27.1.1, SVG Export Plug-In . SVG Version: 6.00 Build 0)  -->
<svg version="1.1" xmlns="http://www.w3.org/2000/svg" xmlns:xlink="http://www.w3.org/1999/xlink" x="0px" y="0px"
	 viewBox="0 0 512 512" style="enable-background:new 0 0 512 512;" xml:space="preserve">
<g id="ICONOS">
	<g>
		<path style="fill:#4F565F;" d="M298.32,42.77c45.32,0.05,88.77,18.08,120.82,50.12c32.05,32.05,50.07,75.5,50.12,120.82
			c0,5.67,2.25,11.1,6.26,15.11c4.01,4.01,9.44,6.26,15.11,6.26s11.1-2.25,15.11-6.26c4.01-4.01,6.26-9.44,6.26-15.11
			c-0.06-56.65-22.59-110.97-62.65-151.03C409.29,22.63,354.97,0.1,298.32,0.04c-5.67,0-11.1,2.25-15.11,6.26
			c-4.01,4.01-6.26,9.44-6.26,15.11c0,5.67,2.25,11.1,6.26,15.11C287.22,40.52,292.65,42.77,298.32,42.77z"/>
		<path style="fill:#4F565F;" d="M440.55,317.48c-12.34-11.75-28.73-18.29-45.76-18.26c-17.03,0.02-33.41,6.61-45.71,18.39
			l-31.31,24.89c-33.24-13.76-63.44-33.95-88.86-59.42c-25.42-25.47-45.55-55.71-59.24-88.98l24.74-31.11
			c11.79-12.3,18.38-28.68,18.41-45.72c0.03-17.04-6.51-33.44-18.26-45.78c0,0-39.6-51.43-40.26-52.1
			C142.09,7.13,125.55,0.17,108.24,0.01c-17.3-0.16-33.97,6.5-46.41,18.54L37.26,39.91c-164.96,175.56,260.9,601.32,435.91,433.77
			l19.44-22.42c12.38-12.42,19.34-29.24,19.34-46.77c0-17.54-6.96-34.36-19.34-46.78C491.96,357.06,440.55,317.48,440.55,317.48z
			 M469.04,405.79c-0.34,6.21-3.08,12.04-7.64,16.27l-19.47,22.44C314.9,564.54-54.15,215.96,66.41,71l24.57-21.37
			c4.26-4.23,9.97-6.68,15.97-6.83c6-0.15,11.83,1.99,16.3,6c0,0,39.34,51.18,40,51.82c4.36,4.4,6.81,10.35,6.81,16.55
			c0,6.2-2.45,12.15-6.81,16.55c-0.58,0.56-34.92,43.68-34.92,43.68c-2.37,2.97-3.9,6.51-4.45,10.26c-0.54,3.76-0.08,7.59,1.35,11.1
			c16.1,43.04,41.26,82.13,73.78,114.6c32.52,32.47,71.64,57.58,114.71,73.61c3.47,1.32,7.22,1.72,10.89,1.15
			c3.67-0.57,7.12-2.08,10.03-4.4c0,0,43.1-34.34,43.68-34.94c4.4-4.36,10.35-6.81,16.55-6.81c6.2,0,12.15,2.45,16.55,6.81
			c0.66,0.66,51.8,40,51.8,40C467.29,393.49,469.38,399.58,469.04,405.79z"/>
		<path style="fill:#4F565F;" d="M298.32,128.25c22.67,0,44.41,9.01,60.44,25.03c16.03,16.03,25.03,37.77,25.03,60.44
			c0,5.67,2.25,11.1,6.26,15.11c4.01,4.01,9.44,6.26,15.11,6.26c5.67,0,11.1-2.25,15.11-6.26c4.01-4.01,6.26-9.44,6.26-15.11
			c-0.03-33.99-13.55-66.58-37.59-90.62c-24.04-24.04-56.63-37.56-90.62-37.59c-5.67,0-11.1,2.25-15.11,6.26
			c-4.01,4.01-6.26,9.44-6.26,15.11c0,5.67,2.25,11.1,6.26,15.11C287.22,126,292.65,128.25,298.32,128.25z"/>
	</g>
</g>
<g id="REGLAS_Y_TAMAÑOS">
</g>
</svg>
