<?xml version="1.0" encoding="utf-8"?>
<!-- Generator: Adobe Illustrator 27.1.1, SVG Export Plug-In . SVG Version: 6.00 Build 0)  -->
<svg version="1.1" xmlns="http://www.w3.org/2000/svg" xmlns:xlink="http://www.w3.org/1999/xlink" x="0px" y="0px"
	 viewBox="0 0 512 512" style="enable-background:new 0 0 512 512;" xml:space="preserve">
<g id="ICONOS">
</g>
<g id="REGLAS_Y_TAMAÑOS">
	<g>
		<path style="fill:#54A65E;" d="M85.33,0h341.33C473.79,0,512,38.21,512,85.33v341.33c0,47.13-38.21,85.33-85.33,85.33H85.33
			C38.21,512,0,473.79,0,426.67V85.33C0,38.21,38.21,0,85.33,0z"/>
		<g>
			<path style="fill:#FFFFFF;" d="M344.29,400H155.04c-11.49,0-22.3-4.48-30.44-12.61c-8.12-8.12-12.6-18.94-12.6-30.43V167.71
				c0-11.48,4.47-22.28,12.59-30.42c8.14-8.14,18.95-12.61,30.45-12.61h94.62c8.83,0,16,7.17,16,16c0,8.83-7.17,16-16,16h-94.62
				c-2.96,0-5.73,1.15-7.81,3.23c-2.05,2.05-3.23,4.91-3.23,7.8v189.25c0,2.91,1.18,5.75,3.23,7.8c2.09,2.09,4.86,3.24,7.81,3.24
				h189.25c2.94,0,5.71-1.15,7.8-3.24c2.08-2.08,3.23-4.85,3.23-7.8v-94.62c0-8.83,7.17-16,16-16s16,7.17,16,16v94.62
				c0,11.51-4.48,22.32-12.61,30.44C366.58,395.52,355.78,400,344.29,400z M209.1,318.89c-4.19,0-8.28-1.65-11.31-4.69
				c-3.98-3.98-5.57-9.74-4.21-15.2l13.52-54.07c0.7-2.81,2.16-5.38,4.21-7.43l128.43-128.42c16.88-16.88,46.27-16.86,63.17-0.01
				c8.45,8.45,13.09,19.67,13.09,31.6c0,11.93-4.65,23.15-13.08,31.58L274.49,300.69c-2.05,2.05-4.62,3.51-7.44,4.21l-54.07,13.51
				C211.7,318.73,210.4,318.89,209.1,318.89z M237.07,256.99l-5.98,23.91l23.91-5.97l125.29-125.29c2.4-2.4,3.71-5.57,3.71-8.96
				c0-3.4-1.31-6.57-3.71-8.97c-4.79-4.77-13.14-4.79-17.93,0l0,0L237.07,256.99z M351.05,120.4h0.21H351.05z"/>
		</g>
	</g>
</g>
</svg>
