<?xml version="1.0" encoding="utf-8"?>
<!-- Generator: Adobe Illustrator 27.0.1, SVG Export Plug-In . SVG Version: 6.00 Build 0)  -->
<svg version="1.1" xmlns="http://www.w3.org/2000/svg" xmlns:xlink="http://www.w3.org/1999/xlink" x="0px" y="0px"
	 viewBox="0 0 512 512" style="enable-background:new 0 0 512 512;" xml:space="preserve">
<g id="ICONOS">
</g>
<g id="REGLAS_Y_TAMAÑOS">
	<g>
		<path style="fill:#4F565F;" d="M341.33,234.67h-64V128c0-11.8-9.56-21.33-21.33-21.33s-21.33,9.54-21.33,21.33v128
			c0,11.8,9.56,21.33,21.33,21.33h85.33c11.8,0,21.33-9.54,21.33-21.33S353.13,234.67,341.33,234.67z"/>
		<path style="fill:#4F565F;" d="M256,0C114.84,0,0,114.84,0,256s114.84,256,256,256s256-114.84,256-256S397.16,0,256,0z
			 M256,469.33c-117.63,0-213.33-95.7-213.33-213.33c0-117.63,95.7-213.33,213.33-213.33c117.63,0,213.33,95.7,213.33,213.33
			C469.33,373.63,373.63,469.33,256,469.33z"/>
	</g>
</g>
</svg>
