<?xml version="1.0" encoding="utf-8"?>
<!-- Generator: Adobe Illustrator 27.1.1, SVG Export Plug-In . SVG Version: 6.00 Build 0)  -->
<svg version="1.1" xmlns="http://www.w3.org/2000/svg" xmlns:xlink="http://www.w3.org/1999/xlink" x="0px" y="0px"
	 viewBox="0 0 512 512" style="enable-background:new 0 0 512 512;" xml:space="preserve">
<g id="ICONOS">
</g>
<g id="REGLAS_Y_TAMAÑOS">
	<g>
		<path style="fill:#6D20F4;" d="M396.09,67.26v16.47h-16.48c-9.09,0-16.48,7.39-16.48,16.47v16.47c0,9.08,7.39,16.47,16.48,16.47
			h16.48v16.47c0,9.08,7.39,16.47,16.48,16.47h16.48c9.09,0,16.48-7.39,16.48-16.47v-16.47h16.48c9.09,0,16.48-7.39,16.48-16.47
			V100.2c0-9.08-7.39-16.47-16.48-16.47h-16.48V67.26c0-9.08-7.39-16.47-16.48-16.47h-16.48C403.48,50.78,396.09,58.17,396.09,67.26
			z M462.02,100.19v16.48h-32.96v32.94h-16.48v-32.94h-32.96V100.2h32.96V67.26h16.48v32.94L462.02,100.19z"/>
		<path style="fill:#6D20F4;" d="M503.22,26.08c-25.46,0-50.47-6.92-72.29-20.01L420.81,0l-10.12,6.06
			c-21.82,13.1-46.82,20.01-72.29,20.01h-8.24v41.18h-16.48v-8.24c0-31.79-25.88-57.65-57.69-57.65c-31.8,0-57.68,25.86-57.68,57.65
			v8.24H82.95c-9.09,0-16.48,7.39-16.48,16.47v65.99c-18.7,0.54-36.03,9.06-47.75,23.72C6.99,188.08,0.54,206.48,0.54,225.47
			c0,22.33,8.7,43.32,24.5,59.11l41.43,41.4v169.55c0,9.08,7.39,16.47,16.48,16.47h346.11c9.09,0,16.48-7.39,16.48-16.47V205.95
			c40.19-21.08,65.93-62.5,65.93-109.38V26.08H503.22z M396.09,205.95v105.26l-17.43,19.6h-97.94v98.83h98.89v-75.11L396.09,336
			v126.59H115.91V375.4l8.24,8.24l99.11-99.05c5.89-5.89,10.8-12.51,14.63-19.66h77.31c3.41,9.56,12.48,16.47,23.21,16.47
			c13.63,0,24.72-11.09,24.72-24.71s-11.09-24.71-24.72-24.71c-10.73,0-19.79,6.91-23.21,16.47h-70.7
			c2.12-7.44,3.26-15.22,3.26-23.22c0-18.75-6.45-37.14-18.18-51.8c-12.11-15.14-30.18-23.82-49.58-23.82
			c-16.96,0-32.9,6.6-44.9,18.59l-10.95,10.95l-8.24-8.24v-54.24h215.87C337.96,155.11,361.76,187.94,396.09,205.95z M338.76,400.46
			l24.37-27.4v40.11H297.2v-65.89h65.93v0.99l-25.08,28.19l-18.54-18.53l-11.65,11.65L338.76,400.46z M330.17,256.68
			c0-4.54,3.69-8.24,8.24-8.24c4.55,0,8.24,3.7,8.24,8.24s-3.69,8.24-8.24,8.24C333.86,264.92,330.17,261.22,330.17,256.68z
			 M214.8,59.02c0-22.71,18.48-41.18,41.2-41.18c22.72,0,41.2,18.47,41.2,41.18v8.24h-16.48v-8.24c0-13.62-11.09-24.71-24.72-24.71
			c-13.63,0-24.72,11.09-24.72,24.71v8.24H214.8V59.02z M264.24,59.02v8.24h-16.48v-8.24c0-4.54,3.69-8.24,8.24-8.24
			C260.55,50.78,264.24,54.48,264.24,59.02z M82.95,83.73h247.22v12.85c0,1.22,0.11,2.41,0.15,3.62H99.43v57.59
			c-5.16-2.92-10.7-5.07-16.48-6.42V83.73z M36.69,272.93c-12.68-12.68-19.67-29.53-19.67-47.7c0-15.03,5.18-29.77,14.58-41.51
			c8.95-11.21,22.33-17.63,36.7-17.63c12.55,0,24.36,4.88,33.24,13.76l22.6,22.59l22.6-22.59c8.88-8.88,20.69-13.76,33.24-13.76
			c14.36,0,27.75,6.42,36.7,17.63c9.4,11.74,14.58,26.48,14.58,41.75c0,7.97-1.46,15.71-4.1,22.98h-75.16l-18.1,36.19l-25.55-76.59
			l-22.76,56.88H66.46v16.47h30.3l10.2-25.48l23.89,71.65l31.35-62.64h56.17c-2.05,2.8-4.26,5.51-6.77,8.01l-87.46,87.41
			L36.69,272.93z M429.05,495.53H82.95V342.45l16.48,16.47v120.13h313.15V213.14c1.95,0.69,3.87,1.42,5.88,2.02l2.37,0.71l2.36-0.71
			c2-0.6,3.92-1.33,5.88-2.02V495.53z M494.98,96.58c0,46.94-29.7,87.65-74.17,102.07c-44.47-14.42-74.17-55.13-74.17-102.07V42.33
			c25.58-1.34,50.5-8.93,72.54-22.14l1.63-0.99l1.63,0.98c22.03,13.22,46.96,20.8,72.53,22.15V96.58z"/>
		<rect x="247.76" y="413.17" style="fill:#6D20F4;" width="16.48" height="16.47"/>
		<rect x="214.8" y="413.17" style="fill:#6D20F4;" width="16.48" height="16.47"/>
		<rect x="181.83" y="413.17" style="fill:#6D20F4;" width="16.48" height="16.47"/>
		<rect x="264.24" y="199.03" style="fill:#6D20F4;" width="49.44" height="16.47"/>
		<rect x="264.24" y="166.09" style="fill:#6D20F4;" width="49.44" height="16.47"/>
		<rect x="264.24" y="133.14" style="fill:#6D20F4;" width="49.44" height="16.47"/>
	</g>
</g>
</svg>
