<?xml version="1.0" encoding="utf-8"?>
<!-- Generator: Adobe Illustrator 27.0.1, SVG Export Plug-In . SVG Version: 6.00 Build 0)  -->
<svg version="1.1" xmlns="http://www.w3.org/2000/svg" xmlns:xlink="http://www.w3.org/1999/xlink" x="0px" y="0px"
	 viewBox="0 0 512 512" style="enable-background:new 0 0 512 512;" xml:space="preserve">
<g id="ICONOS">
	<g>
		<path style="fill:#6D20F4;" d="M506.08,239.36c-3.79-3.8-8.82-5.87-14.17-5.87c-40.63,0-70.72,17.41-87.18,29.87
			c-21.25-14.98-64.25-38.91-114.68-31.45c-47.51,7.09-88.67,39.78-122.31,97.16c-1.8,3.03-2.75,6.5-2.77,10.06
			c-0.02,3.54,0.9,7.03,2.65,10.06c1.75,3.06,4.28,5.62,7.35,7.4c3.07,1.77,6.53,2.69,10.04,2.69c3.5,0,6.94-0.91,9.98-2.65
			c3.01-1.74,5.55-4.24,7.33-7.26c27.2-46.35,58.64-72.51,93.48-77.76c50.93-7.67,95.52,31.96,95.93,32.34
			c0.28,0.26,0.65,0.35,0.94,0.59c0.57,0.47,1.04,1.06,1.67,1.48c0.84,0.55,1.79,0.83,2.69,1.25c0.68,0.32,1.31,0.69,2.02,0.94
			c2.01,0.66,4.1,1.07,6.25,1.07c0.14,0,0.27-0.08,0.42-0.09c0.15-0.01,0.27,0.07,0.42,0.06c1.4-0.06,2.68-0.64,4.02-0.98
			c1.06-0.27,2.18-0.22,3.2-0.67c0.1-0.04,0.16-0.14,0.26-0.18c1.34-0.61,2.39-1.65,3.56-2.53c0.91-0.69,2.02-1.15,2.78-1.98
			c0.28-0.3,28.47-29.33,71.95-29.33c5.35,0,10.39-2.08,14.17-5.87c3.74-3.73,5.87-8.9,5.87-14.16
			C511.95,248.26,509.82,243.09,506.08,239.36z"/>
		<path style="fill:#6D20F4;" d="M278.03,435.38c19.64,6.84,39.06,10.08,58.07,10.19c20.47,0,41.1-4.54,59.73-13.13
			c26.59-12.35,40.91-29.14,42.26-30.78c1.82-2.04,3.18-4.38,4.07-6.98c0.85-2.55,1.19-5.29,0.98-7.89
			c-0.19-2.73-0.95-5.35-2.21-7.75c-1.26-2.43-2.97-4.53-5.06-6.24c-2.11-1.74-4.5-3-7.12-3.76c-2.62-0.75-5.32-1-8.02-0.66
			c-2.68,0.33-5.23,1.18-7.62,2.55c-2.35,1.36-4.37,3.16-5.7,4.96c-1.67,1.95-42.09,47.41-116.12,21.61
			c-5.01-1.74-10.58-1.43-15.33,0.86c-4.82,2.32-8.46,6.38-10.23,11.44c-1.75,5-1.43,10.59,0.86,15.33
			C268.89,429.96,272.96,433.6,278.03,435.38z"/>
		<path style="fill:#6D20F4;" d="M476.54,428.47c-2.12-1.58-4.5-2.71-7.08-3.35c-2.57-0.63-5.19-0.79-7.8-0.39
			c-2.62,0.39-5.1,1.27-7.37,2.63c-123.39,73.89-236.31,39.29-292.7,12.07c-26.09-12.5-53.75-21.61-82.17-27.1
			c-10.9-2.12-30.13-7.57-36.6-20.22c-4.96-9.74-2.94-24.93,5.9-43.99l0.83-2.15C78.3,257.53,146.84,149.2,199.28,73.91
			c4.77-6.83,10.79-12.49,17.9-16.78c7.12-4.31,14.93-7.03,23.17-8.06l70.19-8.82c4.3-0.58,8.62,0.58,12.1,3.14
			c3.5,2.58,5.84,6.36,6.59,10.63l6.25,35.4c0.33,1.82,0.19,3.74-0.4,5.52c-0.57,1.76-1.6,3.36-2.96,4.66
			c-1.36,1.27-3.02,2.21-4.85,2.69c-1.81,0.47-3.71,0.51-5.53,0.08L262.6,88.56c-0.83-0.34-1.54-0.96-2.4-1.18
			c-2.63-0.69-5.35-0.83-8.08-0.44c-2.71,0.41-5.24,1.35-7.55,2.78c-2.33,1.44-4.31,3.31-5.85,5.53c-1.57,2.22-2.65,4.71-3.14,7.06
			l-0.08,0.29c-0.02,0.07-0.07,0.12-0.08,0.18c-0.01,0.05,0.01,0.1-0.01,0.15l-31.74,122.11c-0.66,2.56-0.81,5.19-0.45,7.75
			c0.35,2.62,1.21,5.13,2.57,7.41c1.33,2.29,3.09,4.26,5.18,5.84c2.12,1.61,4.5,2.77,7.07,3.43c1.64,0.42,3.34,0.63,5.04,0.63h0.04
			c4.42-0.01,8.76-1.52,12.21-4.2c3.5-2.71,6.03-6.55,7.12-10.8l26.98-103.79l43.16,10.08c8.23,1.94,16.92,1.81,25.12-0.42
			c8.18-2.2,15.75-6.46,21.92-12.28c6.16-5.83,10.82-13.15,13.48-21.2c2.67-8.06,3.29-16.72,1.82-25.07l-6.25-35.36
			c-2.54-14.47-10.45-27.23-22.28-35.96C334.59,2.42,320.01-1.4,305.5,0.46l-70.17,8.85c-13.86,1.76-26.95,6.31-38.89,13.53
			c-11.95,7.23-22.06,16.7-30.05,28.15C112.59,128.24,42.05,239.84,11.96,332.09c-14.05,30.71-15.68,57.05-4.83,78.26
			c10.64,20.89,33,35.18,64.63,41.36c25.04,4.82,49.42,12.85,72.42,23.86C178.6,492.19,233.44,512,299.24,512
			c60.85,0,119.95-16.89,175.67-50.24c2.26-1.36,4.2-3.12,5.78-5.24c1.58-2.12,2.71-4.5,3.35-7.08s0.78-5.19,0.39-7.8
			c-0.39-2.63-1.27-5.11-2.63-7.37C480.42,431.98,478.65,430.02,476.54,428.47z M223.09,242.68L223.09,242.68L223.09,242.68
			L223.09,242.68z"/>
	</g>
</g>
<g id="REGLAS_Y_TAMAÑOS">
</g>
</svg>
