<?xml version="1.0" encoding="utf-8"?>
<!-- Generator: Adobe Illustrator 27.0.1, SVG Export Plug-In . SVG Version: 6.00 Build 0)  -->
<svg version="1.1" xmlns="http://www.w3.org/2000/svg" xmlns:xlink="http://www.w3.org/1999/xlink" x="0px" y="0px"
	 viewBox="0 0 512 512" style="enable-background:new 0 0 512 512;" xml:space="preserve">
<g id="ICONOS">
	<g>
		<path style="fill:#7900FF;" d="M405.33,42.67H384V21.33C384,9.55,374.45,0,362.67,0s-21.33,9.55-21.33,21.33v21.33H170.67V21.33
			C170.67,9.55,161.12,0,149.33,0C137.55,0,128,9.55,128,21.33v21.33h-21.33C47.79,42.74,0.07,90.45,0,149.33v256
			C0.07,464.21,47.79,511.93,106.67,512h298.67c58.88-0.07,106.6-47.79,106.67-106.67v-256C511.93,90.45,464.21,42.74,405.33,42.67z
			 M469.33,405.33c0,35.35-28.65,64-64,64H106.67c-35.35,0-64-28.65-64-64v-192h426.67V405.33z M469.33,170.67H42.67v-21.33
			c0-35.35,28.65-64,64-64h298.67c35.35,0,64,28.65,64,64V170.67z"/>
		<circle style="fill:#7900FF;" cx="256" cy="320" r="32"/>
		<circle style="fill:#7900FF;" cx="149.33" cy="320" r="32"/>
		<circle style="fill:#7900FF;" cx="362.67" cy="320" r="32"/>
	</g>
</g>
<g id="REGLAS_Y_TAMAÑOS">
</g>
</svg>
