<?xml version="1.0" encoding="utf-8"?>
<!-- Generator: Adobe Illustrator 27.0.1, SVG Export Plug-In . SVG Version: 6.00 Build 0)  -->
<svg version="1.1" xmlns="http://www.w3.org/2000/svg" xmlns:xlink="http://www.w3.org/1999/xlink" x="0px" y="0px"
	 viewBox="0 0 512 512" style="enable-background:new 0 0 512 512;" xml:space="preserve">
<g id="ICONOS">
	<g>
		<path style="fill:#6D20F4;" d="M278.4,188.8c0-12.37-10.03-22.4-22.4-22.4c-12.37,0-22.4,10.03-22.4,22.4v138.3
			c-34.98,12.37-53.32,50.76-40.95,85.75c12.37,34.99,50.76,53.32,85.75,40.95c34.98-12.37,53.32-50.76,40.95-85.74
			c-6.77-19.14-21.82-34.19-40.95-40.95V188.8z"/>
		<path style="fill:#6D20F4;" d="M353.28,317.4c-5.93-7.91-12.8-15.06-20.47-21.31V76.81C332.82,34.46,298.36,0,256,0
			s-76.82,34.46-76.82,76.81v219.27c-23.8,19.35-39.21,46.54-43.57,77.08c-4.59,32.16,3.61,64.18,23.1,90.16
			c19.49,25.99,47.93,42.83,80.09,47.42c5.83,0.83,11.66,1.25,17.45,1.25c26.12,0,51.44-8.39,72.71-24.34
			c25.99-19.49,42.83-47.93,47.42-80.09C380.98,375.41,372.77,343.39,353.28,317.4z M333.34,435.32
			c-16,27.58-45.45,44.58-77.34,44.63c-49.48-0.09-89.51-40.27-89.43-89.74c0.06-31.88,17.06-61.34,44.64-77.33V76.81
			c0-24.74,20.05-44.79,44.79-44.79s44.79,20.05,44.79,44.79v236.06C343.59,337.7,358.16,392.52,333.34,435.32z"/>
	</g>
</g>
<g id="REGLAS_Y_TAMAÑOS">
</g>
</svg>
