<?xml version="1.0" encoding="utf-8"?>
<!-- Generator: Adobe Illustrator 27.0.0, SVG Export Plug-In . SVG Version: 6.00 Build 0)  -->
<svg version="1.1" xmlns="http://www.w3.org/2000/svg" xmlns:xlink="http://www.w3.org/1999/xlink" x="0px" y="0px"
	 viewBox="0 0 512 512" style="enable-background:new 0 0 512 512;" xml:space="preserve">
<g id="ICONOS">
	<path style="fill:#7900FF;" d="M484.2,8.94c-14.74-9.79-31.4-11.64-45.71-5.07c-23.24,10.66-49.04,25.56-73.98,39.96l-0.13,0.07
		c-51.52,29.74-109.91,63.43-169.39,76.13h-85.87c-56.43,0-102.33,45.91-102.33,102.33S52.7,324.7,109.12,324.7h0.96
		c1.4,34.46,8.74,67.98,21.29,97.13c15.21,35.32,37.92,64.2,65.67,83.5c6.13,4.3,13.55,6.67,20.9,6.67c4.63,0,9.29-0.9,13.84-2.67
		c11.64-4.53,20.02-14.63,22.41-27.02l6.91-34.97c2.58-12.66-1.8-25.9-11.4-34.55c-18.51-16.78-30.96-47.89-33.65-83.78
		c70.12,16.92,131.17,55.83,190.25,93.47l3.11,1.98c8.75,5.57,17.81,11.33,26.68,16.92c5.91,3.66,12.71,5.59,19.66,5.59
		c9.26,0,19.03-3.25,28.25-9.4c13.48-8.95,21.21-23.12,21.21-38.87V47.85C505.42,32.13,497.76,17.95,484.2,8.94z M147.92,324.7
		h30.46c1.97,48.91,18.62,90.99,45.93,115.86l-6.57,33.24C176.81,444.67,150.86,389.21,147.92,324.7z M178.08,157.66v129.42h-68.96
		c-35.59,0-64.62-29.03-64.71-64.71c0-35.68,29.03-64.71,64.71-64.71H178.08z M455.93,409.36c-7.63-4.7-15.47-9.71-23.06-14.55
		l-6.24-3.98c-64.31-40.95-130.8-83.27-210.82-100.42V153.83c60.92-15.68,117.57-48.46,167.62-77.43
		c24.15-13.95,49.12-28.37,70.81-38.32c2.18-0.99,5.57-0.2,9.25,2.14c3.04,2.03,4.4,4.34,4.4,7.49l-0.1,351.08v0
		c0,3.15-1.36,5.46-4.4,7.49C459.62,408.8,456.74,409.39,455.93,409.36z"/>
</g>
<g id="REGLAS_Y_TAMAÑOS">
</g>
</svg>
