<?xml version="1.0" encoding="utf-8"?>
<!-- Generator: Adobe Illustrator 27.0.0, SVG Export Plug-In . SVG Version: 6.00 Build 0)  -->
<svg version="1.1" xmlns="http://www.w3.org/2000/svg" xmlns:xlink="http://www.w3.org/1999/xlink" x="0px" y="0px"
	 viewBox="0 0 512 512" style="enable-background:new 0 0 512 512;" xml:space="preserve">
<g id="ICONOS">
	<g>
		<path style="fill:#7900FF;" d="M412.83,115.86V63.32c0-8.28-6.72-15-15-15H15c-8.28,0-15,6.72-15,15v335.67
			c0,35.73,28.96,64.69,64.69,64.69h382.63c35.73,0,64.69-28.96,64.69-64.69V130.96c0-8.28-6.72-15-15-15h-84.06
			C412.88,115.96,412.83,115.92,412.83,115.86z M64.58,433.68L64.58,433.68c-19.07,0-34.58-15.52-34.58-34.59V78.42
			c0-0.06,0.05-0.1,0.1-0.1h352.63c0.06,0,0.1,0.05,0.1,0.1v320.67c0,12.65,3.67,24.46,9.98,34.43c0.04,0.07,0,0.15-0.08,0.15H64.58
			z M482,399.09c0,18.32-14.32,33.36-32.36,34.51c-20.22,1.29-36.81-15.08-36.81-35.34v-252.2c0-0.06,0.05-0.1,0.1-0.1h68.96
			c0.06,0,0.1,0.05,0.1,0.1V399.09z"/>
		<path style="fill:#7900FF;" d="M181.42,116.64H70c-5.52,0-10,4.48-10,10v128.49c0,5.52,4.48,10,10,10h111.42c5.52,0,10-4.48,10-10
			V126.64C191.42,121.11,186.94,116.64,181.42,116.64z M161.31,235.12H90.1c-0.06,0-0.1-0.05-0.1-0.1v-88.28
			c0-0.06,0.05-0.1,0.1-0.1h71.21c0.06,0,0.1,0.05,0.1,0.1v88.28C161.42,235.08,161.37,235.12,161.31,235.12z"/>
		<path style="fill:#7900FF;" d="M60.1,395.36h292.63c0.06,0,0.1-0.05,0.1-0.1v-29.8c0-0.06-0.05-0.1-0.1-0.1H60.1
			c-0.06,0-0.1,0.05-0.1,0.1v29.8C60,395.31,60.05,395.36,60.1,395.36z"/>
		<path style="fill:#7900FF;" d="M60.1,330.24h292.63c0.06,0,0.1-0.05,0.1-0.1v-29.8c0-0.06-0.05-0.1-0.1-0.1H60.1
			c-0.06,0-0.1,0.05-0.1,0.1v29.8C60,330.19,60.05,330.24,60.1,330.24z"/>
		<path style="fill:#7900FF;" d="M221.52,265.12h131.22c0.06,0,0.1-0.05,0.1-0.1v-29.8c0-0.06-0.05-0.1-0.1-0.1H221.52
			c-0.06,0-0.1,0.05-0.1,0.1v29.8C221.42,265.07,221.47,265.12,221.52,265.12z"/>
		<path style="fill:#7900FF;" d="M221.52,146.64h131.22c0.06,0,0.1-0.05,0.1-0.1v-29.8c0-0.06-0.05-0.1-0.1-0.1H221.52
			c-0.06,0-0.1,0.05-0.1,0.1v29.8C221.42,146.59,221.47,146.64,221.52,146.64z"/>
		<path style="fill:#7900FF;" d="M221.52,205.88h131.22c0.06,0,0.1-0.05,0.1-0.1v-29.8c0-0.06-0.05-0.1-0.1-0.1H221.52
			c-0.06,0-0.1,0.05-0.1,0.1v29.8C221.42,205.83,221.47,205.88,221.52,205.88z"/>
	</g>
</g>
<g id="REGLAS_Y_TAMAÑOS">
</g>
</svg>
