<?xml version="1.0" encoding="utf-8"?>
<!-- Generator: Adobe Illustrator 27.0.0, SVG Export Plug-In . SVG Version: 6.00 Build 0)  -->
<svg version="1.1" xmlns="http://www.w3.org/2000/svg" xmlns:xlink="http://www.w3.org/1999/xlink" x="0px" y="0px"
	 viewBox="0 0 512 512" style="enable-background:new 0 0 512 512;" xml:space="preserve">
<g id="ICONOS">
	<path style="fill:#7900FF;" d="M489.51,296.69l-21.3-17.53c-14.59-12.01-14.56-34.34,0-46.32l21.3-17.53
		c15.16-12.48,19.03-33.88,9.22-50.88l-42.06-72.85c-9.82-17-30.29-24.34-48.67-17.46l-25.83,9.68
		c-17.7,6.63-37.02-4.55-40.12-23.16l-4.54-27.21C334.29,14.06,317.69,0,298.06,0h-84.12c-19.63,0-36.23,14.06-39.46,33.42
		l-4.54,27.21c-3.11,18.64-22.45,29.78-40.12,23.16L104,74.12c-18.38-6.89-38.86,0.46-48.67,17.46l-42.06,72.85
		c-9.82,17-5.94,38.4,9.22,50.88l21.3,17.53c14.59,12.01,14.56,34.33,0,46.32l-21.3,17.53c-15.16,12.48-19.03,33.88-9.22,50.88
		l42.06,72.85c9.82,17,30.29,24.34,48.67,17.46l25.83-9.68c17.7-6.63,37.01,4.56,40.12,23.16l4.54,27.21
		c3.23,19.37,19.82,33.43,39.46,33.43h84.12c19.63,0,36.23-14.06,39.46-33.42l4.54-27.21c3.11-18.64,22.45-29.78,40.12-23.16
		l25.84,9.68c18.39,6.89,38.86-0.45,48.67-17.46l42.06-72.85C508.55,330.57,504.67,309.17,489.51,296.69L489.51,296.69z
		 M422.03,400.42l-25.83-9.68c-41.3-15.47-86.37,10.63-93.61,54.04L298.06,472h-84.12l-4.54-27.21
		c-7.25-43.5-52.39-69.48-93.6-54.04l-25.83,9.68l-42.06-72.85l21.3-17.53c34.05-28.03,33.98-80.11,0-108.09l-21.3-17.53
		l42.06-72.85l25.83,9.68c41.3,15.47,86.37-10.63,93.61-54.04L213.94,40h84.12l4.54,27.21c7.25,43.5,52.39,69.48,93.61,54.04
		l25.83-9.68l42.07,72.84c0,0,0,0-0.01,0.01l-21.3,17.53c-34.05,28.03-33.98,80.11,0,108.09l21.3,17.53L422.03,400.42z M256,157.33
		c-54.41,0-98.67,44.26-98.67,98.67s44.26,98.67,98.67,98.67s98.67-44.26,98.67-98.67S310.41,157.33,256,157.33z M256,314.67
		c-32.35,0-58.67-26.32-58.67-58.67s26.32-58.67,58.67-58.67s58.67,26.32,58.67,58.67S288.35,314.67,256,314.67z"/>
</g>
<g id="REGLAS_Y_TAMAÑOS">
</g>
</svg>
