<?xml version="1.0" encoding="utf-8"?>
<!-- Generator: Adobe Illustrator 27.0.0, SVG Export Plug-In . SVG Version: 6.00 Build 0)  -->
<svg version="1.1" xmlns="http://www.w3.org/2000/svg" xmlns:xlink="http://www.w3.org/1999/xlink" x="0px" y="0px"
	 viewBox="0 0 512 512" style="enable-background:new 0 0 512 512;" xml:space="preserve">
<g id="ICONOS">
	<g>
		<path style="fill:#7900FF;" d="M470.66,68.89c-4.02-0.95-8.15-1.42-12.28-1.42c0,0-0.01,0-0.01,0H118.95L106.7,15.34
			C104.58,6.31,96.62,0.01,87.35,0.01c0,0-0.01,0-0.01,0H19.88C8.92,0.01,0,8.93,0,19.89s8.92,19.88,19.88,19.88H71.6l58.3,247.8
			c-27.63,4.07-47.78,29.04-45.47,57.26c2.26,27.58,25.64,49.11,53.28,49.11c0.08,0,0.15,0,0.23,0h286.71
			c10.96,0,19.88-8.92,19.88-19.88s-8.92-19.88-19.88-19.88H137.93c-7.64,0-13.85-6.21-13.85-13.85s6.21-13.85,13.85-13.85h284.71
			c0.05,0,0.09,0,0.14,0c24.99,0,46.39-16.98,52.05-41.33l35.74-151.79C517.34,104.58,499.44,75.66,470.66,68.89z M472.17,121.61
			c-0.02,0.9-0.12,1.79-0.31,2.67l-35.75,151.77c-1.45,6.29-6.95,10.67-13.41,10.67c-0.02,0-0.03,0-0.05,0H170.54l-42.29-179.49
			l330.07,0C466.1,107.37,472.31,113.83,472.17,121.61z"/>
		<path style="fill:#7900FF;" d="M374.05,404.77c-29.56,0-53.61,24.05-53.61,53.61c0,29.56,24.05,53.61,53.61,53.61
			s53.61-24.05,53.61-53.61C427.66,428.82,403.61,404.77,374.05,404.77z M387.9,458.38c0,7.64-6.21,13.85-13.85,13.85
			s-13.85-6.21-13.85-13.85c0-7.64,6.21-13.85,13.85-13.85S387.9,450.74,387.9,458.38z"/>
		<path style="fill:#7900FF;" d="M188.53,404.77c-29.56,0-53.61,24.05-53.61,53.61c0,29.56,24.05,53.61,53.61,53.61
			s53.61-24.05,53.61-53.61C242.14,428.82,218.09,404.77,188.53,404.77z M202.38,458.38c0,7.64-6.21,13.85-13.85,13.85
			c-7.64,0-13.85-6.21-13.85-13.85c0-7.64,6.21-13.85,13.85-13.85C196.17,444.53,202.38,450.74,202.38,458.38z"/>
	</g>
</g>
<g id="REGLAS_Y_TAMAÑOS">
</g>
</svg>
