<?xml version="1.0" encoding="utf-8"?>
<!-- Generator: Adobe Illustrator 27.0.0, SVG Export Plug-In . SVG Version: 6.00 Build 0)  -->
<svg version="1.1" xmlns="http://www.w3.org/2000/svg" xmlns:xlink="http://www.w3.org/1999/xlink" x="0px" y="0px"
	 viewBox="0 0 512 512" style="enable-background:new 0 0 512 512;" xml:space="preserve">
<g id="ICONOS">
	<g>
		<path style="fill:#7900FF;" d="M76,240c12.11,0,23.11-4.82,31.21-12.62l44.15,22.07c-0.23,1.82-0.36,3.67-0.36,5.55
			c0,24.81,20.19,45,45,45s45-20.19,45-45c0-6.94-1.58-13.52-4.4-19.39l60.01-60.01c5.88,2.82,12.45,4.4,19.39,4.4
			c24.81,0,45-20.19,45-45c0-4.69-0.72-9.21-2.06-13.46l52.13-39.1C418.21,87.21,426.79,90,436,90c24.81,0,45-20.19,45-45
			S460.81,0,436,0s-45,20.19-45,45c0,4.69,0.72,9.21,2.06,13.46l-52.13,39.1C333.79,92.79,325.21,90,316,90c-24.81,0-45,20.19-45,45
			c0,6.94,1.58,13.52,4.4,19.39l-60.01,60.01c-5.88-2.82-12.45-4.4-19.39-4.4c-12.11,0-23.11,4.82-31.21,12.62l-44.15-22.07
			c0.23-1.82,0.36-3.67,0.36-5.55c0-24.81-20.19-45-45-45s-45,20.19-45,45S51.19,240,76,240z M436,30c8.27,0,15,6.73,15,15
			s-6.73,15-15,15s-15-6.73-15-15S427.73,30,436,30z M316,120c8.27,0,15,6.73,15,15s-6.73,15-15,15s-15-6.73-15-15
			S307.73,120,316,120z M196,240c8.27,0,15,6.73,15,15s-6.73,15-15,15s-15-6.73-15-15S187.73,240,196,240z M76,180
			c8.27,0,15,6.73,15,15s-6.73,15-15,15s-15-6.73-15-15S67.73,180,76,180z"/>
		<path style="fill:#7900FF;" d="M497,482h-16V165c0-8.29-6.71-15-15-15h-60c-8.29,0-15,6.71-15,15v317h-30V255
			c0-8.29-6.71-15-15-15h-60c-8.29,0-15,6.71-15,15v227h-30V375c0-8.29-6.71-15-15-15h-60c-8.29,0-15,6.71-15,15v107h-30V315
			c0-8.29-6.71-15-15-15H46c-8.29,0-15,6.71-15,15v167H15c-8.29,0-15,6.71-15,15s6.71,15,15,15h482c8.29,0,15-6.71,15-15
			S505.29,482,497,482z M91,482H61V330h30V482z M211,482h-30v-92h30V482z M331,482h-30V270h30V482z M451,482h-30V180h30V482z"/>
	</g>
</g>
<g id="REGLAS_Y_TAMAÑOS">
</g>
</svg>
